<?xml version="1.0" encoding="UTF-8"?>
<svg version="1.1" xmlns="http://www.w3.org/2000/svg" width="267" height="223">
<path d="M0 0 C2.69176701 1.37847912 5.3064902 2.86558141 7.91210938 4.40014648 C10.84689269 6.11016397 13.81923788 7.74394587 16.796875 9.37817383 C21.23316319 11.82295714 25.66453598 14.27541709 30.078125 16.76098633 C31.00270508 17.28088135 31.92728516 17.80077637 32.87988281 18.33642578 C35.1711383 19.71274843 37.272922 21.18792131 39.375 22.83520508 C38.91785076 26.49239896 38.38302777 29.8074616 37.35546875 33.35864258 C36.00298424 38.69700752 36.0348388 43.97982951 36.0625 49.46020508 C36.06378906 50.51530273 36.06507813 51.57040039 36.06640625 52.6574707 C36.16525274 60.71840191 37.07998273 68.07586099 39.375 75.83520508 C32.60485993 80.56355687 25.53573696 84.69184331 18.33984375 88.72924805 C16.2532133 89.90375549 14.17316392 91.08937838 12.09375 92.27661133 C10.66677375 93.0879976 9.23969255 93.89919933 7.8125 94.71020508 C7.14597412 95.09152588 6.47944824 95.47284668 5.79272461 95.86572266 C-3.31889595 101.01828562 -11.34466435 103.03184564 -21.75 100.77270508 C-28.43881808 98.88522325 -35.19470176 95.35582593 -39.625 89.83520508 C-39.625 88.51520508 -39.625 87.19520508 -39.625 85.83520508 C-37.86279297 84.30224609 -37.86279297 84.30224609 -35.3671875 82.83911133 C-34.44180176 82.28674805 -33.51641602 81.73438477 -32.56298828 81.1652832 C-31.55220215 80.58198242 -30.54141602 79.99868164 -29.5 79.39770508 C-28.46987793 78.78733398 -27.43975586 78.17696289 -26.37841797 77.5480957 C-23.13521791 75.62993079 -19.8808293 73.73183781 -16.625 71.83520508 C-13.60756119 70.06110677 -10.59254508 68.28297835 -7.57861328 66.50292969 C-5.74621408 65.42256382 -3.91139543 64.34628684 -2.07373047 63.27490234 C2.88247507 60.3733293 7.71130947 57.34612086 12.46313477 54.11987305 C14.71771149 52.60492186 17.02622732 51.19900857 19.375 49.83520508 C15.02750882 46.0761622 10.30125915 43.38021482 5.3125 40.58520508 C3.44395949 39.52670122 1.57547292 38.46810215 -0.29296875 37.40942383 C-2.40364512 36.21801632 -4.51432225 35.02661015 -6.625 33.83520508 C-10.96722498 31.3804623 -15.30601896 28.91975585 -19.64157104 26.45324707 C-21.46507099 25.4175439 -23.29117675 24.38654823 -25.11743164 23.35571289 C-30.8454842 20.099279 -36.36813601 16.81233687 -41.625 12.83520508 C-38.74509073 5.76633687 -32.86255969 2.15963567 -26.1875 -0.97338867 C-17.51304283 -3.87438586 -8.40029632 -3.85050347 0 0 Z " fill="#3F8DC6" transform="translate(104.625,57.164794921875)"/>
<path d="M0 0 C0.96236572 0.57113525 1.92473145 1.14227051 2.91625977 1.73071289 C3.99439941 2.36130615 5.07253906 2.99189941 6.18334961 3.64160156 C7.31337402 4.32198486 8.44339844 5.00236816 9.60766602 5.70336914 C10.77734177 6.40107655 11.94742854 7.09809537 13.11791992 7.79443359 C15.42187332 9.16557945 17.72274531 10.54147073 20.0222168 11.92016602 C22.67470896 13.47537315 25.3393043 14.93804584 28.07250977 16.34399414 C34.00410424 19.44222416 38.55464055 21.88848291 40.98266602 28.51586914 C41.44351665 30.58579148 41.83969839 32.67117275 42.17016602 34.76586914 C42.49307617 36.24506836 42.49307617 36.24506836 42.82250977 37.75415039 C45.83802696 53.26534014 46.06700785 73.36263678 39.3972168 88.0234375 C34.37050936 95.16144207 23.93886555 99.32626723 16.48266602 103.45336914 C14.49956144 104.56138539 12.51648776 105.66945696 10.53344727 106.77758789 C9.60483887 107.2898291 8.67623047 107.80207031 7.71948242 108.32983398 C6.16685193 109.20443392 4.62794988 110.10486705 3.11694336 111.04956055 C-0.71141177 113.4403121 -3.31946749 114.44667918 -7.82983398 113.76586914 C-16.69479227 109.6782803 -25.31806738 103.00836011 -28.82983398 93.76586914 C-22.09269917 88.90162686 -15.20449855 84.49402465 -8.01733398 80.32836914 C-6.07411881 79.19121397 -4.13140772 78.05319697 -2.18920898 76.91430664 C-1.26430664 76.37257813 -0.3394043 75.83084961 0.61352539 75.27270508 C4.84341202 72.77968939 9.02084976 70.20735257 13.18969727 67.61352539 C15.3871577 66.25127273 17.59111664 64.90625309 19.80688477 63.57446289 C20.41072998 63.2094165 21.0145752 62.84437012 21.63671875 62.46826172 C23.3179973 61.45258995 25.00181422 60.44112345 26.68579102 59.42993164 C29.25692728 58.00422185 29.25692728 58.00422185 30.17016602 55.76586914 C19.85645141 49.63657589 9.47071799 43.63985323 -0.95483398 37.70336914 C-10.6549285 32.17961467 -20.30926681 26.59478782 -29.82983398 20.76586914 C-29.55887378 16.04838245 -28.38260805 13.76179619 -24.88110352 10.57958984 C-24.0822876 9.8983606 -24.0822876 9.8983606 -23.26733398 9.20336914 C-22.72447754 8.72665771 -22.18162109 8.24994629 -21.62231445 7.75878906 C-8.39394848 -3.66072035 -8.39394848 -3.66072035 0 0 Z " fill="#3E95CC" transform="translate(183.829833984375,50.234130859375)"/>
<path d="M0 0 C3.66956838 1.86272747 7.25173777 3.86440556 10.82910156 5.89770508 C11.85745117 6.47665527 12.88580078 7.05560547 13.9453125 7.65209961 C33.14184225 18.48867115 33.14184225 18.48867115 42.11425781 24.17114258 C42.83621338 24.62666504 43.55816895 25.0821875 44.30200195 25.55151367 C44.80594482 25.99575684 45.3098877 26.44 45.82910156 26.89770508 C45.82910156 27.88770508 45.82910156 28.87770508 45.82910156 29.89770508 C43.70120896 31.72075914 41.58658434 33.37551517 39.32910156 35.02270508 C33.44429423 39.45678012 28.43485647 44.10475248 23.82910156 49.89770508 C17.87236343 48.26775186 12.83311187 45.26189103 7.51660156 42.21020508 C6.52708496 41.6465625 5.53756836 41.08291992 4.51806641 40.50219727 C-28.43846584 21.63013767 -28.43846584 21.63013767 -31.17089844 18.89770508 C-31.04803104 11.89426356 -28.87384598 8.00861916 -24.17089844 2.89770508 C-17.01318744 -3.59417234 -8.70773076 -4.07688694 0 0 Z " fill="#4086C5" transform="translate(127.1708984375,18.102294921875)"/>
<path d="M0 0 C2.51227803 1.02142792 3.33730825 1.79183531 4.8828125 3.98046875 C9.41206532 9.70100942 15.6407215 13.42592612 21.59375 17.52734375 C22.14289063 17.98625 22.69203125 18.44515625 23.2578125 18.91796875 C23.2578125 19.57796875 23.2578125 20.23796875 23.2578125 20.91796875 C21.5715332 22.14794922 21.5715332 22.14794922 19.18359375 23.53515625 C18.29849121 24.05392334 17.41338867 24.57269043 16.50146484 25.10717773 C15.53418457 25.66348877 14.5669043 26.2197998 13.5703125 26.79296875 C12.58240723 27.36797119 11.59450195 27.94297363 10.57666016 28.53540039 C7.47474519 30.33725168 4.36654644 32.12791364 1.2578125 33.91796875 C-0.64728718 35.02317593 -2.55224077 36.12863501 -4.45703125 37.234375 C-9.52959754 40.16957572 -14.62949472 43.05338662 -19.7421875 45.91796875 C-20.37930664 46.28100098 -21.01642578 46.6440332 -21.67285156 47.01806641 C-27.9386091 50.56748567 -33.43234767 53.49994901 -40.7421875 51.91796875 C-46.6612588 49.98783681 -50.19720791 46.96687908 -53.7421875 41.91796875 C-54.9725617 38.22684614 -55.25909029 35.79263845 -54.7421875 31.91796875 C-52.46524506 29.92765697 -50.6657768 28.70202521 -48.0546875 27.29296875 C-46.58273509 26.43852976 -45.11141279 25.58300465 -43.640625 24.7265625 C-42.84881836 24.27651855 -42.05701172 23.82647461 -41.24121094 23.36279297 C-37.73125859 21.33349461 -34.30068924 19.18457916 -30.86401367 17.03417969 C-28.1941691 15.36452518 -25.51455482 13.71169134 -22.83203125 12.0625 C-19.61973827 10.08537925 -16.42523152 8.08463639 -13.24609375 6.0546875 C-11.91160143 5.21721985 -10.57697549 4.37996507 -9.2421875 3.54296875 C-8.64978271 3.1555249 -8.05737793 2.76808105 -7.44702148 2.36889648 C-4.81839884 0.74033917 -3.125297 -0.09349179 0 0 Z " fill="#3F8DCA" transform="translate(151.7421875,147.08203125)"/>
<path d="M0 0 C1.58675537 0.94262695 1.58675537 0.94262695 3.20556641 1.90429688 C3.77417389 2.23723755 4.34278137 2.57017822 4.92861938 2.91320801 C6.72891104 3.97109122 8.51788267 5.04660937 10.30712891 6.12304688 C11.53168391 6.84689782 12.75693828 7.569567 13.98291016 8.29101562 C16.97419665 10.05475927 19.95560802 11.83447051 22.93212891 13.62304688 C22.93212891 14.61304687 22.93212891 15.60304688 22.93212891 16.62304688 C23.59212891 16.62304688 24.25212891 16.62304688 24.93212891 16.62304688 C24.93212891 17.28304687 24.93212891 17.94304687 24.93212891 18.62304688 C23.94212891 18.95304687 22.95212891 19.28304687 21.93212891 19.62304688 C22.73650391 19.93242188 23.54087891 20.24179688 24.36962891 20.56054688 C26.93212891 21.62304688 26.93212891 21.62304688 27.93212891 22.62304688 C27.97276723 24.28921803 27.97484991 25.95692782 27.93212891 27.62304688 C28.59212891 27.62304688 29.25212891 27.62304688 29.93212891 27.62304688 C29.93212891 28.28304687 29.93212891 28.94304687 29.93212891 29.62304688 C30.59212891 29.62304688 31.25212891 29.62304688 31.93212891 29.62304688 C32.02978516 35.77539062 32.02978516 35.77539062 31.93212891 37.62304688 C31.60212891 37.95304687 31.27212891 38.28304687 30.93212891 38.62304688 C30.86064692 39.97548605 30.84813436 41.33139054 30.86962891 42.68554688 C30.89025391 43.98492187 30.91087891 45.28429687 30.93212891 46.62304688 C30.25150391 46.41679688 29.57087891 46.21054688 28.86962891 45.99804688 C25.821108 45.3904945 25.821108 45.3904945 22.61962891 46.74804688 C14.43201827 48.69086974 6.29505476 42.1193205 -0.50537109 38.06054688 C-1.55273438 37.44228027 -2.60009766 36.82401367 -3.67919922 36.18701172 C-5.79970897 34.93471923 -7.91870602 33.67986153 -10.03613281 32.42236328 C-13.62359017 30.29323132 -17.22018885 28.17997684 -20.81811523 26.06860352 C-23.90372956 24.25741655 -26.98589122 22.44041001 -30.06787109 20.62304688 C-29.79691089 15.90556019 -28.62064516 13.61897392 -25.11914062 10.43676758 C-24.32032471 9.75553833 -24.32032471 9.75553833 -23.50537109 9.06054688 C-22.96251465 8.58383545 -22.4196582 8.10712402 -21.86035156 7.6159668 C-8.57806167 -3.85009294 -8.57806167 -3.85009294 0 0 Z " fill="#3E8BC9" transform="translate(184.06787109375,50.376953125)"/>
<path d="M0 0 C2.28326468 1.01947617 4.54888305 2.06344171 6.8125 3.125 C7.45509766 3.40859375 8.09769531 3.6921875 8.75976562 3.984375 C13.41955387 6.20562121 15.24323102 8.1822844 17 13 C17.61075453 15.1272006 18.15260005 17.27536176 18.625 19.4375 C18.86476562 20.50871094 19.10453125 21.57992187 19.3515625 22.68359375 C22.60713698 39.33409213 22.98377596 59.58179046 15 75 C12.66015625 77.1796875 12.66015625 77.1796875 10.0625 78.875 C9.20785156 79.44992188 8.35320312 80.02484375 7.47265625 80.6171875 C5.25265463 81.85870499 3.4844035 82.55038637 1 83 C1 81.68 1 80.36 1 79 C4.465 78.505 4.465 78.505 8 78 C8 77.34 8 76.68 8 76 C8.66 76 9.32 76 10 76 C10 75.34 10 74.68 10 74 C10.99 74 11.98 74 13 74 C13.144375 72.865625 13.28875 71.73125 13.4375 70.5625 C14 67 14 67 15 66 C15.20775561 64.33795513 15.36718255 62.66970509 15.5 61 C15.88888889 56.11111111 15.88888889 56.11111111 17 55 C17.07179964 53.48071962 17.08392007 51.95832518 17.0625 50.4375 C17.05347656 49.61121094 17.04445312 48.78492188 17.03515625 47.93359375 C17.02355469 47.29550781 17.01195312 46.65742187 17 46 C15.8553125 46.2475 15.8553125 46.2475 14.6875 46.5 C12 47 12 47 9 47 C6.44143249 48.08545288 4.98611612 49.01388388 3 51 C2.01 51.66 1.02 52.32 0 53 C0 52.34 0 51.68 0 51 C-1.65 51 -3.3 51 -5 51 C-1.11327187 47.81994972 2.89952133 44.89445553 7 42 C2.91266859 38.55131413 -1.43805907 35.76206846 -6 33 C-2.66688525 31.2175082 0.24480943 30.51207144 4 30 C4 30.66 4 31.32 4 32 C4.99 31.67 5.98 31.34 7 31 C6.979375 29.865625 6.95875 28.73125 6.9375 27.5625 C7 24 7 24 8 23 C8.23075082 21.65252916 8.41153063 20.29622435 8.5625 18.9375 C8.706875 17.638125 8.85125 16.33875 9 15 C8.34 15 7.68 15 7 15 C7 14.34 7 13.68 7 13 C6.34 13 5.68 13 5 13 C4.34 11.02 3.68 9.04 3 7 C1.68 7 0.36 7 -1 7 C-1.33 6.01 -1.66 5.02 -2 4 C-0.68 4 0.64 4 2 4 C2 3.34 2 2.68 2 2 C1.34 2 0.68 2 0 2 C0 1.34 0 0.68 0 0 Z " fill="#42B8CE" transform="translate(207,65)"/>
<path d="M0 0 C7.11225144 2.37075048 7.11225144 2.37075048 9.3515625 6.48046875 C10.44229335 9.63193156 11.2725212 12.74548957 12 16 C12.22429687 16.99257812 12.44859375 17.98515625 12.6796875 19.0078125 C15.74882568 35.44662109 15.84045912 55.8585629 8 71 C5.66015625 73.1796875 5.66015625 73.1796875 3.0625 74.875 C2.20785156 75.44992188 1.35320312 76.02484375 0.47265625 76.6171875 C-1.74734537 77.85870499 -3.5155965 78.55038637 -6 79 C-6 77.68 -6 76.36 -6 75 C-2.535 74.505 -2.535 74.505 1 74 C1 73.34 1 72.68 1 72 C1.66 72 2.32 72 3 72 C3 71.34 3 70.68 3 70 C3.99 70 4.98 70 6 70 C6.144375 68.865625 6.28875 67.73125 6.4375 66.5625 C7 63 7 63 8 62 C8.20775561 60.33795513 8.36718255 58.66970509 8.5 57 C8.88888889 52.11111111 8.88888889 52.11111111 10 51 C10.07179964 49.48071962 10.08392007 47.95832518 10.0625 46.4375 C10.05347656 45.61121094 10.04445312 44.78492188 10.03515625 43.93359375 C10.02355469 43.29550781 10.01195312 42.65742187 10 42 C9.01 42.495 9.01 42.495 8 43 C8 38.33333333 8 33.66666667 8 29 C8.66 28.67 9.32 28.34 10 28 C9.69201674 26.51988629 9.378482 25.04092675 9.0625 23.5625 C8.88847656 22.73878906 8.71445313 21.91507813 8.53515625 21.06640625 C8.19247006 19.02338796 8.19247006 19.02338796 7 18 C6.50351772 14.93535032 6.09888855 11.86334082 5.6953125 8.78515625 C5.25253232 5.6823593 5.25253232 5.6823593 2 4 C2 3.34 2 2.68 2 2 C1.34 2 0.68 2 0 2 C0 1.34 0 0.68 0 0 Z " fill="#74C8CB" transform="translate(214,69)"/>
<path d="M0 0 C0.99 -0.33 1.98 -0.66 3 -1 C4.34187818 -0.3507041 5.67479497 0.31731862 7 1 C8.32 1 9.64 1 11 1 C11 1.99 11 2.98 11 4 C11.66 4.33 12.32 4.66 13 5 C12.67 5.99 12.34 6.98 12 8 C15.62885324 8.15149298 15.62885324 8.15149298 19 7 C19 8.32 19 9.64 19 11 C19.928125 11.4640625 19.928125 11.4640625 20.875 11.9375 C22.25 12.625 23.625 13.3125 25 14 C25.0825 12.88625 25.165 11.7725 25.25 10.625 C26 7 26 7 27.875 5.625 C28.926875 5.315625 28.926875 5.315625 30 5 C30.99 4.67 31.98 4.34 33 4 C33.99 4.99 34.98 5.98 36 7 C29.84965831 15.44646925 29.84965831 15.44646925 26 19 C21.89751895 17.73706091 18.29341914 16.21178062 14.55859375 14.1015625 C13.56279297 13.53953125 12.56699219 12.9775 11.54101562 12.3984375 C10.51685547 11.81320313 9.49269531 11.22796875 8.4375 10.625 C7.40947266 10.0475 6.38144531 9.47 5.32226562 8.875 C0.57465892 6.17966399 -3.79104152 3.49853974 -8 0 C-2.25 -1.125 -2.25 -1.125 0 0 Z " fill="#53B7C3" transform="translate(125,49)"/>
<path d="M0 0 C0.66 0.33 1.32 0.66 2 1 C2.969375 0.814375 3.93875 0.62875 4.9375 0.4375 C8 0 8 0 11 2 C11.33 1.34 11.66 0.68 12 0 C12.99 0.33 13.98 0.66 15 1 C8.80792364 7.64581625 -3.85840238 13.49885382 -13 14 C-20.59234014 14.06152626 -28.66321995 12.43044175 -34.73828125 7.625 C-36.125 6.25 -36.125 6.25 -38 4 C-33.87005015 4.47653267 -30.65567442 5.05030698 -27 7 C-23.0372046 8.14712498 -20.01907229 7.84120118 -16 7 C-16.33 7.99 -16.66 8.98 -17 10 C-15.329375 9.7215625 -15.329375 9.7215625 -13.625 9.4375 C-10 9 -10 9 -8 10 C-7.67 9.34 -7.34 8.68 -7 8 C-5.68 8.33 -4.36 8.66 -3 9 C-3 8.34 -3 7.68 -3 7 C-2.34 7 -1.68 7 -1 7 C-0.67 4.69 -0.34 2.38 0 0 Z " fill="#5BBDBC" transform="translate(106,145)"/>
<path d="M0 0 C0.93769428 3.14424901 1.08111832 5.87566556 0.9921875 9.1484375 C0.97349609 10.14810547 0.95480469 11.14777344 0.93554688 12.17773438 C0.91556641 13.23283203 0.89558594 14.28792969 0.875 15.375 C0.76861602 24.69759621 1.34104577 33.01020236 4 42 C-1.04587187 45.47859349 -6.18347964 48.78128511 -11.4375 51.9375 C-12.44683594 52.54464844 -13.45617187 53.15179688 -14.49609375 53.77734375 C-15.32238281 54.18082031 -16.14867188 54.58429688 -17 55 C-19 54 -19 54 -20 52 C-17 50 -17 50 -14.5 49.75 C-11.65346471 49.20393293 -11.65346471 49.20393293 -10.1875 45.9375 C-9.795625 44.968125 -9.40375 43.99875 -9 43 C-8.113125 43.020625 -7.22625 43.04125 -6.3125 43.0625 C-3.37830369 43.00713781 -0.84506304 42.6694266 2 42 C1.5359375 40.88625 1.5359375 40.88625 1.0625 39.75 C-2.38298435 30.83227579 -2.13982896 21.36568468 -2.0625 11.9375 C-2.05798828 10.88111328 -2.05347656 9.82472656 -2.04882812 8.73632812 C-2.03715918 6.15749092 -2.02078885 3.57877706 -2 1 C-1.34 0.67 -0.68 0.34 0 0 Z " fill="#8ECEE9" transform="translate(140,91)"/>
<path d="M0 0 C0.33 0 0.66 0 1 0 C3.51465457 12.30963972 3.75820661 28.2110105 -1 40 C-3.5717724 43.78466069 -6.19576218 46.06437358 -10.125 48.375 C-11.42824219 49.16003906 -11.42824219 49.16003906 -12.7578125 49.9609375 C-13.49773437 50.30382812 -14.23765625 50.64671875 -15 51 C-15.66 50.67 -16.32 50.34 -17 50 C-17 49.01 -17 48.02 -17 47 C-13.535 46.505 -13.535 46.505 -10 46 C-10 45.34 -10 44.68 -10 44 C-9.34 44 -8.68 44 -8 44 C-8 43.34 -8 42.68 -8 42 C-7.01 42 -6.02 42 -5 42 C-4.855625 40.865625 -4.71125 39.73125 -4.5625 38.5625 C-4 35 -4 35 -3 34 C-2.79224439 32.33795513 -2.63281745 30.66970509 -2.5 29 C-2.11111111 24.11111111 -2.11111111 24.11111111 -1 23 C-0.84259395 21.29436222 -0.74906608 19.58272756 -0.68359375 17.87109375 C-0.64169922 16.83662109 -0.59980469 15.80214844 -0.55664062 14.73632812 C-0.51732422 13.64771484 -0.47800781 12.55910156 -0.4375 11.4375 C-0.39431641 10.34501953 -0.35113281 9.25253906 -0.30664062 8.12695312 C-0.20017932 5.41810436 -0.09816484 2.70916008 0 0 Z " fill="#71C2C7" transform="translate(225,97)"/>
<path d="M0 0 C0.9075 0.226875 1.815 0.45375 2.75 0.6875 C1.29453498 4.08358504 -0.65860299 6.09610299 -3.25 8.6875 C-3.93268138 10.01270503 -4.6007041 11.34562182 -5.25 12.6875 C-6.875 14.4375 -6.875 14.4375 -8.25 15.6875 C-7.59 15.6875 -6.93 15.6875 -6.25 15.6875 C-6.25 16.3475 -6.25 17.0075 -6.25 17.6875 C-7.57 17.3575 -8.89 17.0275 -10.25 16.6875 C-10.25 15.6975 -10.25 14.7075 -10.25 13.6875 C-10.91 13.6875 -11.57 13.6875 -12.25 13.6875 C-13.67944945 11.33311267 -14.33661261 10.20717567 -13.875 7.4375 C-13.66875 6.86 -13.4625 6.2825 -13.25 5.6875 C-12.26 5.6875 -11.27 5.6875 -10.25 5.6875 C-10.25 5.0275 -10.25 4.3675 -10.25 3.6875 C-9.26 3.3575 -8.27 3.0275 -7.25 2.6875 C-6.651875 2.15125 -6.05375 1.615 -5.4375 1.0625 C-3.25 -0.3125 -3.25 -0.3125 0 0 Z " fill="#416FB1" transform="translate(173.25,137.3125)"/>
<path d="M0 0 C0.66 0.33 1.32 0.66 2 1 C1.67 1.33 1.34 1.66 1 2 C1.66 2.66 2.32 3.32 3 4 C1.824375 4.1546875 1.824375 4.1546875 0.625 4.3125 C-2.33045181 4.77595022 -2.33045181 4.77595022 -4 8 C-6.31808364 9.03485877 -8.65175298 10.0355414 -11 11 C-11.66 11.66 -12.32 12.32 -13 13 C-13.66 12.67 -14.32 12.34 -15 12 C-15 12.66 -15 13.32 -15 14 C-15.99 14.33 -16.98 14.66 -18 15 C-17.67 17.31 -17.34 19.62 -17 22 C-16.67 21.34 -16.34 20.68 -16 20 C-15.34 20 -14.68 20 -14 20 C-14.33 21.65 -14.66 23.3 -15 25 C-19.16372965 21.83194483 -21.25404014 20.04294233 -23 15 C-17.44672395 10.98860421 -11.79800317 7.14737964 -6 3.5 C-4.906875 2.8090625 -3.81375 2.118125 -2.6875 1.40625 C-1.800625 0.9421875 -0.91375 0.478125 0 0 Z " fill="#7D9BC3" transform="translate(178,129)"/>
<path d="M0 0 C0.433125 0.639375 0.86625 1.27875 1.3125 1.9375 C2.91239177 4.26746003 2.91239177 4.26746003 6 5 C6.33 5.99 6.66 6.98 7 8 C12.82841783 10.36323092 19.78871855 10.50724698 26 11 C23.18902666 13.81097334 20.64248232 14.18370413 16.8125 14.3125 C11.02729473 14.22783846 6.67355777 12.37508458 2.35546875 8.5390625 C0.9375 7 0.9375 7 -1 4 C-0.8125 1.625 -0.8125 1.625 0 0 Z " fill="#5EBAC0" transform="translate(99,185)"/>
<path d="M0 0 C2.4375 0.8125 2.4375 0.8125 5 2 C5.33 2.99 5.66 3.98 6 5 C3.04968544 6.86716955 0.08856877 8.71645299 -2.875 10.5625 C-3.71675781 11.09552734 -4.55851563 11.62855469 -5.42578125 12.17773438 C-6.23144531 12.67724609 -7.03710938 13.17675781 -7.8671875 13.69140625 C-8.61081543 14.15748291 -9.35444336 14.62355957 -10.12060547 15.10375977 C-10.74080566 15.39951904 -11.36100586 15.69527832 -12 16 C-12.66 15.67 -13.32 15.34 -14 15 C-13.67 14.01 -13.34 13.02 -13 12 C-12.01 12 -11.02 12 -10 12 C-10 11.01 -10 10.02 -10 9 C-7.69 8.34 -5.38 7.68 -3 7 C-2.87625 6.401875 -2.7525 5.80375 -2.625 5.1875 C-2 3 -2 3 0 0 Z " fill="#5B90C0" transform="translate(169,163)"/>
<path d="M0 0 C3.6964184 1.57097782 5.32576452 3.73719867 7.5 7.0625 C7.3125 9.9375 7.3125 9.9375 6.5 12.0625 C4.5 12.0625 2.5 12.0625 0.5 12.0625 C0.5 9.7525 0.5 7.4425 0.5 5.0625 C-3.13 5.3925 -6.76 5.7225 -10.5 6.0625 C-4.55128205 0.11378205 -4.55128205 0.11378205 0 0 Z " fill="#6184B3" transform="translate(151.5,146.9375)"/>
<path d="M0 0 C5.64060589 0.40290042 8.03471123 2.21914326 12 6 C12.33 6.66 12.66 7.32 13 8 C13.99 8.33 14.98 8.66 16 9 C16 9.66 16 10.32 16 11 C9.33005788 11.2223314 6.37420877 11.00488741 1.1875 6.625 C-1 4 -1 4 -0.8125 1.6875 C-0.4103125 0.8521875 -0.4103125 0.8521875 0 0 Z " fill="#5079B4" transform="translate(129,21)"/>
<path d="M0 0 C0.99 -0.33 1.98 -0.66 3 -1 C4.34187818 -0.3507041 5.67479497 0.31731862 7 1 C8.32 1 9.64 1 11 1 C11 1.99 11 2.98 11 4 C11.66 4.33 12.32 4.66 13 5 C12.67 5.99 12.34 6.98 12 8 C11.01 7.71125 10.02 7.4225 9 7.125 C6.98239969 6.53687359 4.98635533 5.9971166 2.9296875 5.5625 C-1.65391843 4.58652307 -4.4880923 3.29241346 -8 0 C-2.25 -1.125 -2.25 -1.125 0 0 Z " fill="#3BA1D9" transform="translate(125,49)"/>
<path d="M0 0 C1.58583248 0.76567866 3.16856494 1.53777965 4.75 2.3125 C6.07257813 2.95638672 6.07257813 2.95638672 7.421875 3.61328125 C9.85121644 4.91997248 11.95789632 6.14397586 14 8 C14 8.99 14 9.98 14 11 C11.8125 13.04296875 11.8125 13.04296875 9 15.1875 C8.071875 15.90292969 7.14375 16.61835937 6.1875 17.35546875 C5.465625 17.89816406 4.74375 18.44085938 4 19 C3.34 18.67 2.68 18.34 2 18 C2.7425 16.88625 2.7425 16.88625 3.5 15.75 C5.31923475 12.93681812 5.31923475 12.93681812 5 9 C5.66 9 6.32 9 7 9 C7 7.68 7 6.36 7 5 C5.35 4.67 3.7 4.34 2 4 C2 3.34 2 2.68 2 2 C1.34 2 0.68 2 0 2 C0 1.34 0 0.68 0 0 Z " fill="#4794C8" transform="translate(159,37)"/>
<path d="M0 0 C0.66 0.33 1.32 0.66 2 1 C3.4540625 0.7215625 3.4540625 0.7215625 4.9375 0.4375 C8 0 8 0 11 2 C11.33 1.34 11.66 0.68 12 0 C12.99 0.33 13.98 0.66 15 1 C11.84280512 4.71434692 7.65799082 7.69795559 2.765625 8.25390625 C0.84189034 8.25049537 -1.08098171 8.13466795 -3 8 C-2.34 7.67 -1.68 7.34 -1 7 C-0.59270772 4.67843403 -0.25561323 2.3431213 0 0 Z " fill="#48B9C7" transform="translate(106,145)"/>
<path d="M0 0 C3.91211733 1.15585285 6.8745041 2.35534962 10 5 C9.53680089 9.72463088 8.90108294 13.17057052 6 17 C5.34 17 4.68 17 4 17 C4 15.02 4 13.04 4 11 C3.34 10.67 2.68 10.34 2 10 C2.33 7.69 2.66 5.38 3 3 C2.34 3 1.68 3 1 3 C0.67 2.01 0.34 1.02 0 0 Z " fill="#4977B1" transform="translate(134,75)"/>
<path d="M0 0 C2.421875 2.02734375 2.421875 2.02734375 4 4 C2.625 5.5 2.625 5.5 1 7 C0.34 7 -0.32 7 -1 7 C-1 5.35 -1 3.7 -1 2 C-8.92 2.495 -8.92 2.495 -17 3 C-17 3.66 -17 4.32 -17 5 C-17.99 5.33 -18.98 5.66 -20 6 C-20.33 6.66 -20.66 7.32 -21 8 C-21.99 8 -22.98 8 -24 8 C-23.5 5.6875 -23.5 5.6875 -22 3 C-15.31792046 -0.72654436 -7.50632171 -1.1740183 0 0 Z " fill="#4A6DA7" transform="translate(97,56)"/>
<path d="M0 0 C0.66 0.33 1.32 0.66 2 1 C1.67 2.32 1.34 3.64 1 5 C0.01 5 -0.98 5 -2 5 C-2 5.66 -2 6.32 -2 7 C-2.56847656 7.30292969 -3.13695312 7.60585938 -3.72265625 7.91796875 C-10.00790044 11.32815967 -15.99436274 14.81451949 -21 20 C-18.18245084 10.93202568 -8.10825837 4.2752635 0 0 Z " fill="#8BA4C7" transform="translate(175,49)"/>
<path d="M0 0 C5.625 -0.25 5.625 -0.25 9 2 C13.61305669 3.10248995 13.61305669 3.10248995 18 2 C18 3.32 18 4.64 18 6 C19.32 6.66 20.64 7.32 22 8 C16.59855823 9.39392046 13.76942103 9.06340754 8.75976562 6.15625 C8.11716797 5.7746875 7.47457031 5.393125 6.8125 5 C6.15830078 4.6184375 5.50410156 4.236875 4.83007812 3.84375 C3.21666455 2.90161068 1.60787702 1.95155734 0 1 C0 0.67 0 0.34 0 0 Z " fill="#6EC6DC" transform="translate(126,54)"/>
<path d="M0 0 C0.99 0.33 1.98 0.66 3 1 C4.31223496 4.93670488 3.24296256 7.12488144 2 11 C1.01 11 0.02 11 -1 11 C-1 11.66 -1 12.32 -1 13 C-1.66 13 -2.32 13 -3 13 C-3 13.66 -3 14.32 -3 15 C-4.32 15.33 -5.64 15.66 -7 16 C-6.67 15.4225 -6.34 14.845 -6 14.25 C-4.72924102 11.80116138 -4.72924102 11.80116138 -5 8 C-5 7.01 -5 6.02 -5 5 C-4.01 5 -3.02 5 -2 5 C-2 3.68 -2 2.36 -2 1 C-1.34 0.67 -0.68 0.34 0 0 Z " fill="#40B9CC" transform="translate(218,128)"/>
<path d="M0 0 C3.465 1.485 3.465 1.485 7 3 C7 3.99 7 4.98 7 6 C7.66 6 8.32 6 9 6 C9.33 8.97 9.66 11.94 10 15 C9.01 15 8.02 15 7 15 C7 14.34 7 13.68 7 13 C6.34 13 5.68 13 5 13 C4.34 11.02 3.68 9.04 3 7 C1.68 7 0.36 7 -1 7 C-1.33 6.01 -1.66 5.02 -2 4 C-0.68 4 0.64 4 2 4 C2 3.34 2 2.68 2 2 C1.34 2 0.68 2 0 2 C0 1.34 0 0.68 0 0 Z " fill="#3AB0DC" transform="translate(207,65)"/>
<path d="M0 0 C1 3 1 3 0.3515625 5.109375 C-1.42711366 7.59746535 -2.65460558 7.74078953 -5.625 8.25 C-6.44226563 8.39953125 -7.25953125 8.5490625 -8.1015625 8.703125 C-9.04128906 8.85007812 -9.04128906 8.85007812 -10 9 C-7.03 9.495 -7.03 9.495 -4 10 C-4.33 11.32 -4.66 12.64 -5 14 C-9.50621146 12.89470285 -11.65094547 12.34905453 -15 9 C-10.05 6.03 -5.1 3.06 0 0 Z " fill="#52ABD9" transform="translate(113,114)"/>
<path d="M0 0 C-0.99 1.485 -0.99 1.485 -2 3 C-2.66 3 -3.32 3 -4 3 C-4.20625 3.556875 -4.4125 4.11375 -4.625 4.6875 C-6.57076492 7.95992282 -8.90407743 9.81464289 -12 12 C-14.875 12.3125 -14.875 12.3125 -17 12 C-17.33 11.34 -17.66 10.68 -18 10 C-13.25 7 -13.25 7 -11 7 C-11 6.34 -11 5.68 -11 5 C-10.34 5 -9.68 5 -9 5 C-8.87625 4.360625 -8.7525 3.72125 -8.625 3.0625 C-8.41875 2.381875 -8.2125 1.70125 -8 1 C-5.29120665 -0.35439668 -2.99066732 -0.06501451 0 0 Z " fill="#557FB5" transform="translate(140,156)"/>
<path d="M0 0 C0.99 0.66 1.98 1.32 3 2 C0.42474285 3.53617083 -2.158674 5.05388201 -4.75 6.5625 C-5.47960937 7.00013672 -6.20921875 7.43777344 -6.9609375 7.88867188 C-7.66992188 8.29794922 -8.37890625 8.70722656 -9.109375 9.12890625 C-10.08342285 9.70233765 -10.08342285 9.70233765 -11.07714844 10.28735352 C-13.4410801 11.16347293 -14.65942846 10.82193222 -17 10 C-16.67 8.68 -16.34 7.36 -16 6 C-14.68 6 -13.36 6 -12 6 C-12 5.34 -12 4.68 -12 4 C-11.21753906 3.79503906 -10.43507812 3.59007812 -9.62890625 3.37890625 C-8.61699219 3.10949219 -7.60507813 2.84007812 -6.5625 2.5625 C-5.55316406 2.29566406 -4.54382813 2.02882812 -3.50390625 1.75390625 C-1.08247999 1.24021923 -1.08247999 1.24021923 0 0 Z " fill="#40B1D1" transform="translate(140,185)"/>
<path d="M0 0 C0.99 0.33 1.98 0.66 3 1 C3 1.66 3 2.32 3 3 C6.63 3 10.26 3 14 3 C13.67 3.99 13.34 4.98 13 6 C13.66 6.33 14.32 6.66 15 7 C8.55902835 7.24204069 2.12831018 7.2614721 -4 5 C-4.33 4.34 -4.66 3.68 -5 3 C-3.68 3 -2.36 3 -1 3 C-0.67 2.01 -0.34 1.02 0 0 Z " fill="#46B9CA" transform="translate(110,189)"/>
<path d="M0 0 C0.66 0.33 1.32 0.66 2 1 C3.54613014 0.91348369 5.08909387 0.75997364 6.625 0.5625 C7.44226563 0.46066406 8.25953125 0.35882813 9.1015625 0.25390625 C9.72804688 0.17011719 10.35453125 0.08632812 11 0 C4.88762453 4.98045409 -1.31095281 5.75269146 -9 6 C-12.6875 5.5625 -12.6875 5.5625 -15 5 C-12.16163087 3.46417013 -9.52324478 2.51269491 -6.375 1.8125 C-5.59898438 1.63332031 -4.82296875 1.45414063 -4.0234375 1.26953125 C-2 1 -2 1 0 2 C0 1.34 0 0.68 0 0 Z " fill="#75C8C5" transform="translate(98,153)"/>
<path d="M0 0 C-0.8125 2.4375 -0.8125 2.4375 -2 5 C-2.99 5.33 -3.98 5.66 -5 6 C-5 6.66 -5 7.32 -5 8 C-4.34 8.33 -3.68 8.66 -3 9 C-5.64 9 -8.28 9 -11 9 C-11.33 10.65 -11.66 12.3 -12 14 C-12.99 13.34 -13.98 12.68 -15 12 C-15 10.68 -15 9.36 -15 8 C-12.87885799 6.36283687 -10.93177178 5.06398392 -8.625 3.75 C-7.72007813 3.20472656 -7.72007813 3.20472656 -6.796875 2.6484375 C-2.31643562 0 -2.31643562 0 0 0 Z " fill="#6BC2D8" transform="translate(80,135)"/>
<path d="M0 0 C0.33 0 0.66 0 1 0 C2.17217315 5.58892157 2.18361299 11.06718859 2.1875 16.75 C2.19974609 17.70777344 2.21199219 18.66554688 2.22460938 19.65234375 C2.22654297 20.56628906 2.22847656 21.48023437 2.23046875 22.421875 C2.23457764 23.25299805 2.23868652 24.08412109 2.24291992 24.94042969 C2 27 2 27 0 29 C-0.69748583 30.31747324 -1.36959957 31.64914193 -2 33 C-2.02689216 31.52093108 -2.04634621 30.04172517 -2.0625 28.5625 C-2.07410156 27.73878906 -2.08570313 26.91507813 -2.09765625 26.06640625 C-2 24 -2 24 -1 23 C-0.84259395 21.29436222 -0.74906608 19.58272756 -0.68359375 17.87109375 C-0.64169922 16.83662109 -0.59980469 15.80214844 -0.55664062 14.73632812 C-0.51732422 13.64771484 -0.47800781 12.55910156 -0.4375 11.4375 C-0.37272461 9.7987793 -0.37272461 9.7987793 -0.30664062 8.12695312 C-0.20017932 5.41810436 -0.09816484 2.70916008 0 0 Z " fill="#67BDBC" transform="translate(225,97)"/>
<path d="M0 0 C0 1.32 0 2.64 0 4 C0.66 4 1.32 4 2 4 C2 4.66 2 5.32 2 6 C2.99 6 3.98 6 5 6 C5.33 7.32 5.66 8.64 6 10 C6.66 10 7.32 10 8 10 C8 10.66 8 11.32 8 12 C6.02 12.66 4.04 13.32 2 14 C2.66 12.68 3.32 11.36 4 10 C-2.435 6.04 -2.435 6.04 -9 2 C-5.23312136 0.11656068 -3.97041037 -0.22057835 0 0 Z " fill="#5DB2D8" transform="translate(210,96)"/>
<path d="M0 0 C0.66 0.33 1.32 0.66 2 1 C0.75 3.5 0.75 3.5 -1 6 C-2.32 6 -3.64 6 -5 6 C-5.41780879 8.37305578 -5.41780879 8.37305578 -5 11 C-2.58944746 12.66299965 -2.58944746 12.66299965 0 14 C0.33 14.99 0.66 15.98 1 17 C-3.50802601 15.74194623 -6.4912812 14.09592835 -10 11 C-7.99155908 6.07019047 -4.35894926 2.90596617 0 0 Z " fill="#8DA7C5" transform="translate(73,59)"/>
<path d="M0 0 C1.32 0 2.64 0 4 0 C4 2.31 4 4.62 4 7 C7.63 7.66 11.26 8.32 15 9 C12.60776303 11.39223697 11.32240324 11.6758631 8 12 C7.01 11.34 6.02 10.68 5 10 C5 9.34 5 8.68 5 8 C4.195625 7.7525 3.39125 7.505 2.5625 7.25 C0 6 0 6 -0.875 4 C-1 2 -1 2 0 0 Z " fill="#416DAF" transform="translate(68,65)"/>
<path d="M0 0 C0.99 0.33 1.98 0.66 3 1 C3 3.31 3 5.62 3 8 C3.99 8 4.98 8 6 8 C7.5 9.3125 7.5 9.3125 9 11 C9.556875 11.556875 10.11375 12.11375 10.6875 12.6875 C11.120625 13.120625 11.55375 13.55375 12 14 C11.01 14.495 11.01 14.495 10 15 C7.65234375 13.8203125 7.65234375 13.8203125 4.9375 12.125 C4.03902344 11.57070313 3.14054687 11.01640625 2.21484375 10.4453125 C0 9 0 9 -1 8 C-0.82364548 5.30917128 -0.38164079 2.67148554 0 0 Z " fill="#7E9EC0" transform="translate(97,29)"/>
<path d="M0 0 C0 0.66 0 1.32 0 2 C-0.99 2.33 -1.98 2.66 -3 3 C-3.680625 3.680625 -4.36125 4.36125 -5.0625 5.0625 C-5.701875 5.701875 -6.34125 6.34125 -7 7 C-7.66 7 -8.32 7 -9 7 C-9.33 7.99 -9.66 8.98 -10 10 C-12.31 10.33 -14.62 10.66 -17 11 C-17 12.98 -17 14.96 -17 17 C-17.33 17 -17.66 17 -18 17 C-18.4921875 13.83984375 -18.4921875 13.83984375 -18 10 C-15.70569225 7.6316577 -12.99308416 6.15342873 -10.125 4.5625 C-9.37863281 4.11712891 -8.63226563 3.67175781 -7.86328125 3.21289062 C-2.38508065 0 -2.38508065 0 0 0 Z " fill="#8DB9D3" transform="translate(115,169)"/>
<path d="M0 0 C-2.14590229 2.36049251 -4.14600782 3.61903604 -7 5 C-7.66 5.66 -8.32 6.32 -9 7 C-9.99 7.66 -10.98 8.32 -12 9 C-12 8.34 -12 7.68 -12 7 C-13.65 7 -15.3 7 -17 7 C-6.45379877 -2.22792608 -6.45379877 -2.22792608 0 0 Z " fill="#55B0DA" transform="translate(219,109)"/>
<path d="M0 0 C0 2.97 0 5.94 0 9 C-0.99 9 -1.98 9 -3 9 C-3 8.34 -3 7.68 -3 7 C-4.32 7 -5.64 7 -7 7 C-7.33 5.35 -7.66 3.7 -8 2 C-2.25 0 -2.25 0 0 0 Z " fill="#4173B4" transform="translate(176,152)"/>
<path d="M0 0 C3.36569395 3.36569395 4.2115777 7.40086993 5 12 C3.02 12.66 1.04 13.32 -1 14 C-1.02694851 12.04174127 -1.04637218 10.08337774 -1.0625 8.125 C-1.07410156 7.03445312 -1.08570313 5.94390625 -1.09765625 4.8203125 C-1 2 -1 2 0 0 Z " fill="#36A6DF" transform="translate(137,121)"/>
<path d="M0 0 C3.37705625 0.53725895 6.696686 1.11064623 10 2 C10 2.66 10 3.32 10 4 C11.32 4.33 12.64 4.66 14 5 C14 5.66 14 6.32 14 7 C16.475 7.99 16.475 7.99 19 9 C19 9.66 19 10.32 19 11 C14.60616294 9.40376856 10.71004193 7.21975667 6.6875 4.875 C6.04232422 4.50246094 5.39714844 4.12992187 4.73242188 3.74609375 C3.15324055 2.83367787 1.57638136 1.91724491 0 1 C0 0.67 0 0.34 0 0 Z " fill="#769BC4" transform="translate(102,92)"/>
<path d="M0 0 C2.97 0 5.94 0 9 0 C9 0.66 9 1.32 9 2 C9.99 2 10.98 2 12 2 C11.67 3.32 11.34 4.64 11 6 C9.02 6.33 7.04 6.66 5 7 C3.35 4.69 1.7 2.38 0 0 Z " fill="#4280BC" transform="translate(178,80)"/>
<path d="M0 0 C0.66 0.33 1.32 0.66 2 1 C1.34 2.32 0.68 3.64 0 5 C-1.32 5 -2.64 5 -4 5 C-4 5.66 -4 6.32 -4 7 C-11.28571429 11.57142857 -11.28571429 11.57142857 -16 11 C-13.27587303 7.91460888 -9.90811219 5.88811092 -6.4375 3.75 C-5.84775391 3.37359375 -5.25800781 2.9971875 -4.65039062 2.609375 C-3.13894996 1.6739669 -1.57228969 0.82906354 0 0 Z " fill="#75C1DB" transform="translate(96,124)"/>
<path d="M0 0 C2.31 0.33 4.62 0.66 7 1 C6.125 5.75 6.125 5.75 5 8 C3.29296875 8.88671875 3.29296875 8.88671875 1.1875 9.6875 C0.50042969 9.95949219 -0.18664062 10.23148438 -0.89453125 10.51171875 C-3.29376496 11.06812731 -4.6894364 10.77364938 -7 10 C-6.36191406 9.66226563 -5.72382812 9.32453125 -5.06640625 8.9765625 C-4.24011719 8.53054687 -3.41382812 8.08453125 -2.5625 7.625 C-1.73878906 7.18414062 -0.91507812 6.74328125 -0.06640625 6.2890625 C2.13466578 5.16581441 2.13466578 5.16581441 3 3 C2.01 2.01 1.02 1.02 0 0 Z " fill="#82B0CF" transform="translate(121,103)"/>
<path d="M0 0 C3.96 0 7.92 0 12 0 C11.67 0.99 11.34 1.98 11 3 C7.7 3.66 4.4 4.32 1 5 C0.67 3.35 0.34 1.7 0 0 Z " fill="#34ABDF" transform="translate(128,184)"/>
<path d="M0 0 C1.43791516 0.14168137 2.8753237 0.28851043 4.3125 0.4375 C5.11300781 0.51871094 5.91351563 0.59992188 6.73828125 0.68359375 C9 1 9 1 12 2 C12.33 1.34 12.66 0.68 13 0 C13 1.32 13 2.64 13 4 C12.34 4.66 11.68 5.32 11 6 C7.625 5.9375 7.625 5.9375 4 5 C1.5625 2.4375 1.5625 2.4375 0 0 Z " fill="#4C75B1" transform="translate(160,72)"/>
<path d="M0 0 C0.66 0 1.32 0 2 0 C2.33 1.32 2.66 2.64 3 4 C2.21625 4.144375 1.4325 4.28875 0.625 4.4375 C-1.96421018 4.87798925 -1.96421018 4.87798925 -4 6 C-4 7.65 -4 9.3 -4 11 C-6.375 11.625 -6.375 11.625 -9 12 C-9.66 11.34 -10.32 10.68 -11 10 C-7.92456281 6.04586646 -5.49402334 3.37184565 -1 1 C-0.67 0.67 -0.34 0.34 0 0 Z " fill="#4B6FA6" transform="translate(165,59)"/>
<path d="M0 0 C0.66 0.66 1.32 1.32 2 2 C1.34 2.66 0.68 3.32 0 4 C-0.39764263 5.98821313 -0.73775349 7.98944339 -1 10 C-1.99 9.67 -2.98 9.34 -4 9 C-4 8.34 -4 7.68 -4 7 C-6.64 7.66 -9.28 8.32 -12 9 C-10.1875 7 -10.1875 7 -8 5 C-7.01 5 -6.02 5 -5 5 C-5 4.34 -5 3.68 -5 3 C-3.68 3 -2.36 3 -1 3 C-0.67 2.01 -0.34 1.02 0 0 Z " fill="#36A7DF" transform="translate(97,126)"/>
<path d="M0 0 C-2.45267635 1.53068488 -4.91133894 3.04968623 -7.375 4.5625 C-8.07367188 5.00013672 -8.77234375 5.43777344 -9.4921875 5.88867188 C-11.29185903 6.98750978 -13.14322343 8.00067867 -15 9 C-15.66 8.67 -16.32 8.34 -17 8 C-16.67 7.01 -16.34 6.02 -16 5 C-14.35 4.67 -12.7 4.34 -11 4 C-11 3.34 -11 2.68 -11 2 C-9.68 2 -8.36 2 -7 2 C-7 1.34 -7 0.68 -7 0 C-3.86650268 -1.04449911 -3.01031744 -0.93423645 0 0 Z " fill="#7BB2D0" transform="translate(208,149)"/>
<path d="M0 0 C0 0.66 0 1.32 0 2 C-0.99 2.33 -1.98 2.66 -3 3 C-2.67 5.31 -2.34 7.62 -2 10 C-1.67 9.34 -1.34 8.68 -1 8 C-0.34 8 0.32 8 1 8 C0.67 9.65 0.34 11.3 0 13 C-6.57142857 8 -6.57142857 8 -8 3 C-5.48696401 0.48696401 -3.51117809 0 0 0 Z " fill="#6F8BB0" transform="translate(163,141)"/>
<path d="M0 0 C3.63 0 7.26 0 11 0 C11.33 0.99 11.66 1.98 12 3 C12.66 3.33 13.32 3.66 14 4 C12.35 3.67 10.7 3.34 9 3 C9 3.66 9 4.32 9 5 C6.75 5.3125 6.75 5.3125 4 5 C1.6875 2.5 1.6875 2.5 0 0 Z " fill="#4B72AF" transform="translate(114,17)"/>
<path d="M0 0 C0.66 0.33 1.32 0.66 2 1 C1.2884375 1.6496875 1.2884375 1.6496875 0.5625 2.3125 C-1.23686957 4.02309613 -1.23686957 4.02309613 -2 7 C-5.71055417 9.01430083 -8.82851735 9.19402245 -13 9 C-9.49391962 4.88416651 -4.95371163 2.09432982 0 0 Z " fill="#8BB5D4" transform="translate(200,116)"/>
<path d="M0 0 C0 0.66 0 1.32 0 2 C-0.66 2 -1.32 2 -2 2 C-2 2.66 -2 3.32 -2 4 C-4.046875 5.54296875 -4.046875 5.54296875 -6.75 7.1875 C-7.63171875 7.73792969 -8.5134375 8.28835937 -9.421875 8.85546875 C-12 10 -12 10 -14.328125 9.67578125 C-14.87984375 9.45277344 -15.4315625 9.22976562 -16 9 C-13.71180854 7.49445366 -11.41978831 5.99542957 -9.125 4.5 C-8.47402344 4.07074219 -7.82304688 3.64148438 -7.15234375 3.19921875 C-2.2265625 0 -2.2265625 0 0 0 Z " fill="#85A4C9" transform="translate(131,159)"/>
<path d="M0 0 C7.43418468 3.09469548 7.43418468 3.09469548 9.5625 6.5 C10.01287627 9.07357866 9.90064326 10.56826321 9 13 C8.34 13 7.68 13 7 13 C6.80664062 12.43410156 6.61328125 11.86820313 6.4140625 11.28515625 C6.15367187 10.55167969 5.89328125 9.81820312 5.625 9.0625 C5.24214844 7.96615234 5.24214844 7.96615234 4.8515625 6.84765625 C4.14728587 4.81317884 4.14728587 4.81317884 2 4 C2 3.34 2 2.68 2 2 C1.34 2 0.68 2 0 2 C0 1.34 0 0.68 0 0 Z " fill="#7FC8D4" transform="translate(214,69)"/>
<path d="M0 0 C-1.0625 2.375 -1.0625 2.375 -3 5 C-6.6875 6.3125 -6.6875 6.3125 -10 7 C-10.33 6.34 -10.66 5.68 -11 5 C-10.34 4.34 -9.68 3.68 -9 3 C-8.38125 2.195625 -8.38125 2.195625 -7.75 1.375 C-5.21484468 -0.61690775 -3.12499944 -0.2083333 0 0 Z " fill="#457AB6" transform="translate(186,129)"/>
<path d="M0 0 C0.556875 0.226875 1.11375 0.45375 1.6875 0.6875 C1.3575 2.0075 1.0275 3.3275 0.6875 4.6875 C-2.9425 5.0175 -6.5725 5.3475 -10.3125 5.6875 C-4.07440476 -0.55059524 -4.07440476 -0.55059524 0 0 Z " fill="#7595BC" transform="translate(151.3125,147.3125)"/>
<path d="M0 0 C6.38983051 -0.49152542 6.38983051 -0.49152542 9.25 1.8125 C9.8275 2.534375 10.405 3.25625 11 4 C11.5775 4.5775 12.155 5.155 12.75 5.75 C13.1625 6.1625 13.575 6.575 14 7 C13.01 7.495 13.01 7.495 12 8 C9.1796875 6.6015625 9.1796875 6.6015625 5.875 4.625 C4.77929688 3.97789063 3.68359375 3.33078125 2.5546875 2.6640625 C1.71164063 2.11492187 0.86859375 1.56578125 0 1 C0 0.67 0 0.34 0 0 Z " fill="#829EC7" transform="translate(74,76)"/>
<path d="M0 0 C0.66 0.33 1.32 0.66 2 1 C1.67 1.680625 1.34 2.36125 1 3.0625 C-0.17307315 6.50840238 -0.14180493 9.38397422 0 13 C-0.66 12.34 -1.32 11.68 -2 11 C-2.99 11.33 -3.98 11.66 -5 12 C-5.20086443 8.28400809 -5.1519437 7.22791555 -3 4 C-2.34 4 -1.68 4 -1 4 C-0.67 2.68 -0.34 1.36 0 0 Z " fill="#4073B8" transform="translate(104,23)"/>
<path d="M0 0 C1.98 0 3.96 0 6 0 C2.20182235 3.22269618 -1.57391854 5.74520378 -6 8 C-8 7 -8 7 -9 5 C-6 3 -6 3 -3.375 2.5 C-2.59125 2.335 -1.8075 2.17 -1 2 C-0.67 1.34 -0.34 0.68 0 0 Z " fill="#78C4D9" transform="translate(129,138)"/>
<path d="M0 0 C4.61513112 1.31860889 8.09897612 3.21355437 12 6 C11.01 6.495 11.01 6.495 10 7 C9.01 6.67 8.02 6.34 7 6 C6.01 6.66 5.02 7.32 4 8 C2.68 5.36 1.36 2.72 0 0 Z " fill="#85A2C8" transform="translate(115,64)"/>
<path d="M0 0 C6.625 0.75 6.625 0.75 10 3 C10.6875 5.125 10.6875 5.125 11 7 C6.00724943 5.72278474 3.42388092 3.82669043 0 0 Z " fill="#7EC6CD" transform="translate(68,149)"/>
<path d="M0 0 C0 1.65 0 3.3 0 5 C-0.66 5 -1.32 5 -2 5 C-2.33 6.98 -2.66 8.96 -3 11 C-4.32 11.33 -5.64 11.66 -7 12 C-6.67 11.4225 -6.34 10.845 -6 10.25 C-4.72924102 7.80116138 -4.72924102 7.80116138 -5 4 C-5 3.01 -5 2.02 -5 1 C-1.125 0 -1.125 0 0 0 Z " fill="#3EB1DA" transform="translate(218,132)"/>
<path d="M0 0 C1 3 1 3 0.5 5.125 C-1 7 -1 7 -4.625 7.75 C-5.73875 7.8325 -6.8525 7.915 -8 8 C-8 7.01 -8 6.02 -8 5 C-6.25 3.61328125 -6.25 3.61328125 -4 2.3125 C-3.2575 1.87550781 -2.515 1.43851562 -1.75 0.98828125 C-1.1725 0.66214844 -0.595 0.33601563 0 0 Z " fill="#6DABCD" transform="translate(113,114)"/>
<path d="M0 0 C-0.33 1.32 -0.66 2.64 -1 4 C-3.475 3.01 -3.475 3.01 -6 2 C-6 1.34 -6 0.68 -6 0 C-7.32 0 -8.64 0 -10 0 C-10 -0.66 -10 -1.32 -10 -2 C-5.57867492 -3.38955931 -3.72488245 -2.66063032 0 0 Z " fill="#4270B0" transform="translate(138,78)"/>
<path d="M0 0 C4.62 0 9.24 0 14 0 C14.66 1.32 15.32 2.64 16 4 C12.125 6 12.125 6 11 6 C11 4.35 11 2.7 11 1 C7.37 1.33 3.74 1.66 0 2 C0 1.34 0 0.68 0 0 Z " fill="#416BAE" transform="translate(85,57)"/>
<path d="M0 0 C0.33 0.99 0.66 1.98 1 3 C1.99 3 2.98 3 4 3 C2.375 8.75 2.375 8.75 -1 11 C-0.67 9.02 -0.34 7.04 0 5 C-0.99 5 -1.98 5 -3 5 C-3 4.34 -3 3.68 -3 3 C-2.34 3 -1.68 3 -1 3 C-0.67 2.01 -0.34 1.02 0 0 Z " fill="#3E9ACE" transform="translate(161,45)"/>
<path d="M0 0 C-0.66 0.66 -1.32 1.32 -2 2 C-1.6814823 4.10820797 -1.6814823 4.10820797 -1 6 C-1.99 6 -2.98 6 -4 6 C-4.45375 5.505 -4.9075 5.01 -5.375 4.5 C-6.96224523 2.72110101 -6.96224523 2.72110101 -9.6875 2.8125 C-10.450625 2.874375 -11.21375 2.93625 -12 3 C-8.40198016 -0.59801984 -4.84291279 -0.09137571 0 0 Z " fill="#3B9DD6" transform="translate(113,121)"/>
<path d="M0 0 C5.96652354 1.57013777 10.82909025 4.75029782 16 8 C14.68 8.33 13.36 8.66 12 9 C12 8.34 12 7.68 12 7 C10.7625 6.7525 9.525 6.505 8.25 6.25 C4.49230341 5.32390102 2.42331293 4.13011253 0 1 C0 0.67 0 0.34 0 0 Z " fill="#85B7D4" transform="translate(191,56)"/>
<path d="M0 0 C2.97 0.495 2.97 0.495 6 1 C5.34 3.64 4.68 6.28 4 9 C3.01 8.67 2.02 8.34 1 8 C0 2.25 0 2.25 0 0 Z " fill="#35A7DD" transform="translate(100,181)"/>
<path d="M0 0 C0.99 0.33 1.98 0.66 3 1 C0.20803989 4.28465896 -3.23196817 6.01321958 -7 8 C-7.66 8 -8.32 8 -9 8 C-9.33 6.68 -9.66 5.36 -10 4 C-7.69 4 -5.38 4 -3 4 C-2.67 3.01 -2.34 2.02 -2 1 C-1.67 1.33 -1.34 1.66 -1 2 C-0.67 1.34 -0.34 0.68 0 0 Z " fill="#82CED5" transform="translate(118,145)"/>
<path d="M0 0 C3.91211733 1.15585285 6.8745041 2.35534962 10 5 C9.25 11.625 9.25 11.625 7 15 C7.33 11.7 7.66 8.4 8 5 C6.68 5 5.36 5 4 5 C2 3 2 3 0 0 Z " fill="#A7BDD7" transform="translate(134,75)"/>
<path d="M0 0 C0 3 0 3 -2 5.1875 C-2.66 5.785625 -3.32 6.38375 -4 7 C-9.75 5.25 -9.75 5.25 -12 3 C-5.25 2.875 -5.25 2.875 -3 4 C-3 3.01 -3 2.02 -3 1 C-2.01 0.67 -1.02 0.34 0 0 Z " fill="#98D4D5" transform="translate(155,61)"/>
<path d="M0 0 C2.31 0.66 4.62 1.32 7 2 C7 2.66 7 3.32 7 4 C6.34 4 5.68 4 5 4 C4.67 4.99 4.34 5.98 4 7 C1.9375 8.1875 1.9375 8.1875 0 9 C0.185625 8.071875 0.37125 7.14375 0.5625 6.1875 C1.24123881 2.98656229 1.24123881 2.98656229 0 0 Z " fill="#4383C0" transform="translate(185,55)"/>
<path d="M0 0 C0 0.66 0 1.32 0 2 C-4.1205746 3.99785435 -7.45194365 4.17835515 -12 4 C-5.30232558 -1.76744186 -5.30232558 -1.76744186 0 0 Z " fill="#709DC5" transform="translate(192,125)"/>
<path d="M0 0 C0.5625 1.9375 0.5625 1.9375 1 4 C0.67 4.33 0.34 4.66 0 5 C-0.15620555 6.41327947 -0.25056173 7.8335459 -0.31640625 9.25390625 C-0.35830078 10.10791016 -0.40019531 10.96191406 -0.44335938 11.84179688 C-0.48267578 12.73962891 -0.52199219 13.63746094 -0.5625 14.5625 C-0.60568359 15.46419922 -0.64886719 16.36589844 -0.69335938 17.29492188 C-0.79978142 19.52978485 -0.90179988 21.76476308 -1 24 C-1.33 24 -1.66 24 -2 24 C-2 16.41 -2 8.82 -2 1 C-1.34 0.67 -0.68 0.34 0 0 Z " fill="#81A4C7" transform="translate(140,91)"/>
<path d="M0 0 C3.465 1.485 3.465 1.485 7 3 C7 3.99 7 4.98 7 6 C4.36 6.33 1.72 6.66 -1 7 C-1.33 6.01 -1.66 5.02 -2 4 C-0.68 4 0.64 4 2 4 C2 3.34 2 2.68 2 2 C1.34 2 0.68 2 0 2 C0 1.34 0 0.68 0 0 Z " fill="#56B2D8" transform="translate(207,65)"/>
<path d="M0 0 C0 0.33 0 0.66 0 1 C-0.7425 1.144375 -1.485 1.28875 -2.25 1.4375 C-4.90418195 1.9363074 -4.90418195 1.9363074 -7.0625 2.625 C-9.33615837 3.06506291 -10.81582708 2.70205558 -13 2 C-13.66 3.32 -14.32 4.64 -15 6 C-15.99 5.34 -16.98 4.68 -18 4 C-11.97181491 -0.28670939 -7.28695785 -0.474377 0 0 Z " fill="#8BA7C9" transform="translate(122,16)"/>
<path d="M0 0 C3.96 0 7.92 0 12 0 C9.06227785 2.93772215 6.48433481 3.15429721 2.5 3.1875 C1.33984375 3.20876953 1.33984375 3.20876953 0.15625 3.23046875 C-2 3 -2 3 -5 1 C-3.35 1 -1.7 1 0 1 C0 0.67 0 0.34 0 0 Z " fill="#85CDCC" transform="translate(113,196)"/>
<path d="M0 0 C0.66 0 1.32 0 2 0 C2 0.66 2 1.32 2 2 C2.66 2.33 3.32 2.66 4 3 C4 4.32 4 5.64 4 7 C2.02 7 0.04 7 -2 7 C-1.125 1.125 -1.125 1.125 0 0 Z " fill="#35B2DC" transform="translate(125,134)"/>
<path d="M0 0 C0.33 0.66 0.66 1.32 1 2 C2.65 1.67 4.3 1.34 6 1 C7 4 7 4 6 7 C4.68 7 3.36 7 2 7 C2 6.34 2 5.68 2 5 C1.34 5 0.68 5 0 5 C0 3.35 0 1.7 0 0 Z " fill="#35B1DE" transform="translate(210,95)"/>
<path d="M0 0 C2.31 0.33 4.62 0.66 7 1 C7.33 2.32 7.66 3.64 8 5 C8.66 5 9.32 5 10 5 C10 5.66 10 6.32 10 7 C8.02 7.66 6.04 8.32 4 9 C4.66 7.68 5.32 6.36 6 5 C5.01 4.360625 4.02 3.72125 3 3.0625 C2.01 2.381875 1.02 1.70125 0 1 C0 0.67 0 0.34 0 0 Z " fill="#9EDDE9" transform="translate(208,101)"/>
<path d="M0 0 C7.38461538 -0.36923077 7.38461538 -0.36923077 10.5 1.5 C10.995 1.995 11.49 2.49 12 3 C11.01 3 10.02 3 9 3 C9 3.66 9 4.32 9 5 C5.22454612 3.90931332 2.52956528 3.0916909 0 0 Z " fill="#71AED1" transform="translate(192,92)"/>
<path d="M0 0 C1.875 0.125 1.875 0.125 4 1 C5.25 4.0625 5.25 4.0625 6 7 C5.01 7.33 4.02 7.66 3 8 C2.34 7.67 1.68 7.34 1 7 C0.59270772 4.67843403 0.25561323 2.3431213 0 0 Z " fill="#406DAF" transform="translate(112,64)"/>
<path d="M0 0 C0.33 0.99 0.66 1.98 1 3 C0.01 3.33 -0.98 3.66 -2 4 C-2.33 4.99 -2.66 5.98 -3 7 C-3.66 7 -4.32 7 -5 7 C-5 7.66 -5 8.32 -5 9 C-5.99 9 -6.98 9 -8 9 C-6.82191948 5.6470016 -5.80593388 3.2447471 -3 1 C-2.01 0.67 -1.02 0.34 0 0 Z " fill="#6084AC" transform="translate(106,20)"/>
<path d="M0 0 C-5.37041719 4.62452592 -5.37041719 4.62452592 -9 5 C-9.66 4.67 -10.32 4.34 -11 4 C-10.67 3.01 -10.34 2.02 -10 1 C-6.59437148 0.22157062 -3.49234244 -0.09978121 0 0 Z " fill="#6FC2D1" transform="translate(134,191)"/>
<path d="M0 0 C0.7425 0.0825 1.485 0.165 2.25 0.25 C1.25 3.25 1.25 3.25 -1.75 5.25 C-4.4375 4.875 -4.4375 4.875 -6.75 4.25 C-3.42692308 0.31153846 -3.42692308 0.31153846 0 0 Z " fill="#6594BB" transform="translate(189.75,155.75)"/>
<path d="M0 0 C0.99 0 1.98 0 3 0 C3.66 2.97 4.32 5.94 5 9 C3.68 9.99 2.36 10.98 1 12 C0.34 11.67 -0.32 11.34 -1 11 C-0.67 10.34 -0.34 9.68 0 9 C0.99 9 1.98 9 3 9 C2.690625 8.2575 2.38125 7.515 2.0625 6.75 C1.1905075 4.49307824 0.52332993 2.3549847 0 0 Z " fill="#7FC2D7" transform="translate(139,124)"/>
<path d="M0 0 C0.7425 0.45375 1.485 0.9075 2.25 1.375 C4.46930578 2.68640796 6.67967822 3.88280803 9 5 C7.265625 6.1484375 7.265625 6.1484375 5 7 C2.859375 6.1015625 2.859375 6.1015625 0.75 4.625 C0.04359375 4.14289063 -0.6628125 3.66078125 -1.390625 3.1640625 C-1.92171875 2.77992187 -2.4528125 2.39578125 -3 2 C-2.01 1.34 -1.02 0.68 0 0 Z " fill="#85A9D0" transform="translate(176,80)"/>
<path d="M0 0 C4.55737263 0.43820891 7.57653445 0.85041169 11 4 C3.52908757 5.34721372 3.52908757 5.34721372 1 3.6875 C0 2 0 2 0 0 Z " fill="#6D8DBA" transform="translate(99,57)"/>
<path d="M0 0 C2.625 0.375 2.625 0.375 5 1 C5 1.99 5 2.98 5 4 C3.02 4.66 1.04 5.32 -1 6 C-1.625 4.125 -1.625 4.125 -2 2 C-1.34 1.34 -0.68 0.68 0 0 Z " fill="#35AFE0" transform="translate(153,54)"/>
<path d="M0 0 C0.66 0.33 1.32 0.66 2 1 C1.67 2.32 1.34 3.64 1 5 C0.01 5 -0.98 5 -2 5 C-2 5.66 -2 6.32 -2 7 C-2.66 7 -3.32 7 -4 7 C-4 6.34 -4 5.68 -4 5 C-4.66 4.67 -5.32 4.34 -6 4 C-4.02 2.68 -2.04 1.36 0 0 Z " fill="#7297C3" transform="translate(175,49)"/>
<path d="M0 0 C0.433125 0.639375 0.86625 1.27875 1.3125 1.9375 C2.91239177 4.26746003 2.91239177 4.26746003 6 5 C5.67 5.66 5.34 6.32 5 7 C5.33 7.99 5.66 8.98 6 10 C2.66282451 8.6190998 0.77698964 7.1798762 -1 4 C-0.6875 1.75 -0.6875 1.75 0 0 Z " fill="#7AC6DD" transform="translate(99,185)"/>
<path d="M0 0 C-1.69179328 2.04219706 -2.63727666 2.91793306 -5.26171875 3.51171875 C-6.06222656 3.56972656 -6.86273438 3.62773438 -7.6875 3.6875 C-8.49574219 3.75324219 -9.30398437 3.81898437 -10.13671875 3.88671875 C-11.05904297 3.94279297 -11.05904297 3.94279297 -12 4 C-8.47217637 0.27789043 -5.13125677 -1.90046547 0 0 Z " fill="#5DB9D1" transform="translate(219,109)"/>
<path d="M0 0 C2.97 0.495 2.97 0.495 6 1 C5.25 2.9375 5.25 2.9375 4 5 C1.875 5.75 1.875 5.75 0 6 C-1.24546405 3.50907189 -0.7767578 2.58919267 0 0 Z " fill="#3F77B0" transform="translate(93,81)"/>
<path d="M0 0 C1.98 0.66 3.96 1.32 6 2 C6 2.99 6 3.98 6 5 C4.35 5 2.7 5 1 5 C1 4.34 1 3.68 1 3 C0.01 2.67 -0.98 2.34 -2 2 C-1.34 1.34 -0.68 0.68 0 0 Z " fill="#7493C0" transform="translate(127,71)"/>
<path d="M0 0 C-1.28524261 0.86380259 -2.57842419 1.71580369 -3.875 2.5625 C-4.59429687 3.03816406 -5.31359375 3.51382813 -6.0546875 4.00390625 C-6.69664062 4.33261719 -7.33859375 4.66132813 -8 5 C-8.66 4.67 -9.32 4.34 -10 4 C-10 3.01 -10 2.02 -10 1 C-3.375 -1.125 -3.375 -1.125 0 0 Z " fill="#78C3DF" transform="translate(218,143)"/>
<path d="M0 0 C3.36569395 3.36569395 4.2115777 7.40086993 5 12 C4.34 12 3.68 12 3 12 C2.71125 11.195625 2.4225 10.39125 2.125 9.5625 C1.26737432 6.8673532 1.26737432 6.8673532 -1 6 C-0.67 4.02 -0.34 2.04 0 0 Z " fill="#3E9FD3" transform="translate(137,121)"/>
<path d="M0 0 C2.9375 1.3125 2.9375 1.3125 3.8125 3.4375 C3.874375 4.365625 3.874375 4.365625 3.9375 5.3125 C0.16204612 4.22181332 -2.53293472 3.4041909 -5.0625 0.3125 C-3.0625 -0.6875 -3.0625 -0.6875 0 0 Z " fill="#7B9AC4" transform="translate(98.0625,86.6875)"/>
<path d="M0 0 C0.66 0.33 1.32 0.66 2 1 C1.5 2.9375 1.5 2.9375 0 5 C-2.69658452 5.68790422 -5.2017019 5.81946464 -8 6 C-5.63404067 3.38499232 -3.13950774 1.61000397 0 0 Z " fill="#8EC8DE" transform="translate(96,124)"/>
<path d="M0 0 C0.66 0 1.32 0 2 0 C2 0.99 2 1.98 2 3 C2.66 3.33 3.32 3.66 4 4 C3.67 4.66 3.34 5.32 3 6 C0.69 6 -1.62 6 -4 6 C-3.01 5.67 -2.02 5.34 -1 5 C-0.67 3.35 -0.34 1.7 0 0 Z " fill="#4779B2" transform="translate(177,49)"/>
<path d="M0 0 C0.99 0 1.98 0 3 0 C2.67 1.32 2.34 2.64 2 4 C1.34 4 0.68 4 0 4 C0 4.99 0 5.98 0 7 C-0.66 7 -1.32 7 -2 7 C-2 6.34 -2 5.68 -2 5 C-2.66 4.67 -3.32 4.34 -4 4 C-3.01 3.67 -2.02 3.34 -1 3 C-0.67 2.01 -0.34 1.02 0 0 Z " fill="#458BC1" transform="translate(112,171)"/>
<path d="M0 0 C0.66 0.33 1.32 0.66 2 1 C0.9375 3.5 0.9375 3.5 -1 6 C-4.6875 6.3125 -4.6875 6.3125 -8 6 C-5.63404067 3.38499232 -3.13950774 1.61000397 0 0 Z " fill="#8FA6CC" transform="translate(167,136)"/>
<path d="M0 0 C0.99 0.33 1.98 0.66 3 1 C5.63804589 0.60602665 5.63804589 0.60602665 8 0 C7.67 1.32 7.34 2.64 7 4 C7.66 4.33 8.32 4.66 9 5 C4.545 4.01 4.545 4.01 0 3 C0 2.01 0 1.02 0 0 Z " fill="#4378B9" transform="translate(102,89)"/>
<path d="M0 0 C0 0.66 0 1.32 0 2 C0.66 2 1.32 2 2 2 C2.33 3.32 2.66 4.64 3 6 C-0.45925163 4.7508258 -3.14693203 3.32472205 -6 1 C-3.92446352 0.4465236 -2.15634036 0 0 0 Z " fill="#88ADD5" transform="translate(189,86)"/>
<path d="M0 0 C2.1385485 2.1385485 2.42655063 3.13275314 3 6 C-0.45925163 4.7508258 -3.14693203 3.32472205 -6 1 C-3.125 0.375 -3.125 0.375 0 0 Z " fill="#87C2E0" transform="translate(123,48)"/>
<path d="M0 0 C1.32 0 2.64 0 4 0 C3.34 1.98 2.68 3.96 2 6 C1.34 6 0.68 6 0 6 C-1.125 2.25 -1.125 2.25 0 0 Z " fill="#426AB0" transform="translate(109,18)"/>
<path d="M0 0 C0.66 0 1.32 0 2 0 C2 0.66 2 1.32 2 2 C2.66 2.33 3.32 2.66 4 3 C2.02 4.32 0.04 5.64 -2 7 C-2.66 6.67 -3.32 6.34 -4 6 C-3.67 5.01 -3.34 4.02 -3 3 C-2.01 3 -1.02 3 0 3 C0 2.01 0 1.02 0 0 Z " fill="#7AACD0" transform="translate(159,172)"/>
<path d="M0 0 C2.4375 0.8125 2.4375 0.8125 5 2 C5.33 2.99 5.66 3.98 6 5 C4.02 5.99 4.02 5.99 2 7 C2 5.68 2 4.36 2 3 C1.34 3 0.68 3 0 3 C0 2.01 0 1.02 0 0 Z " fill="#85A5C9" transform="translate(169,163)"/>
<path d="M0 0 C0.66 0.66 1.32 1.32 2 2 C1.34 3.32 0.68 4.64 0 6 C-1.66666667 6 -3.33333333 6 -5 6 C-3.63016497 2.83884224 -3.0109362 2.0072908 0 0 Z " fill="#4B75BA" transform="translate(157,153)"/>
<path d="M0 0 C2.0625 0.4375 2.0625 0.4375 4 1 C3.67 2.65 3.34 4.3 3 6 C1.68 6 0.36 6 -1 6 C-1.042721 4.33388095 -1.04063832 2.66617115 -1 1 C-0.67 0.67 -0.34 0.34 0 0 Z " fill="#4AB5CC" transform="translate(69,143)"/>
<path d="M0 0 C1.32 0.33 2.64 0.66 4 1 C-0.43076923 6.78461538 -0.43076923 6.78461538 -3.3125 7.875 C-3.869375 7.91625 -4.42625 7.9575 -5 8 C-5 6 -5 6 -3.0625 4 C-2.381875 3.34 -1.70125 2.68 -1 2 C-0.67 1.34 -0.34 0.68 0 0 Z " fill="#3EB1D8" transform="translate(80,135)"/>
<path d="M0 0 C2.51083114 1.25541557 2.87125446 2.50063488 4 5 C2.35 5.66 0.7 6.32 -1 7 C-0.67 6.01 -0.34 5.02 0 4 C-0.99 3.34 -1.98 2.68 -3 2 C-2.01 1.34 -1.02 0.68 0 0 Z " fill="#6F92C5" transform="translate(139,153)"/>
<path d="M0 0 C0.79921875 0.11085937 1.5984375 0.22171875 2.421875 0.3359375 C3.32679687 0.47902344 3.32679687 0.47902344 4.25 0.625 C0.79785147 2.92643236 0.01520676 2.76333854 -3.9375 2.25 C-5.28908203 2.08371094 -5.28908203 2.08371094 -6.66796875 1.9140625 C-7.35503906 1.81867188 -8.04210937 1.72328125 -8.75 1.625 C-5.5750906 -0.2828584 -3.64414789 -0.5359041 0 0 Z " fill="#97D2CC" transform="translate(91.75,156.375)"/>
<path d="M0 0 C0.99 0 1.98 0 3 0 C3.33 1.32 3.66 2.64 4 4 C4.33 3.34 4.66 2.68 5 2 C5.66 2 6.32 2 7 2 C6.67 3.65 6.34 5.3 6 7 C3.95880212 5.38405168 1.95927063 3.7143618 0 2 C0 1.34 0 0.68 0 0 Z " fill="#7F95C3" transform="translate(157,147)"/>
<path d="M0 0 C0.99 0.66 1.98 1.32 3 2 C-0.465 4.97 -0.465 4.97 -4 8 C-4.66 7.67 -5.32 7.34 -6 7 C-4.6875 4.5 -4.6875 4.5 -3 2 C-2.01 2 -1.02 2 0 2 C0 1.34 0 0.68 0 0 Z " fill="#9DCFE7" transform="translate(167,48)"/>
<path d="M0 0 C3.59391114 1.33488128 6.75490696 2.96022723 10 5 C9.01 5.66 8.02 6.32 7 7 C7 6.34 7 5.68 7 5 C6.401875 4.896875 5.80375 4.79375 5.1875 4.6875 C2.70470535 3.90719311 1.64939723 2.97927667 0 1 C0 0.67 0 0.34 0 0 Z " fill="#96B1D5" transform="translate(138,25)"/>
<path d="M0 0 C-3 2 -3 2 -6 2 C-5.67 2.99 -5.34 3.98 -5 5 C-5.99 5.66 -6.98 6.32 -8 7 C-8 5.02 -8 3.04 -8 1 C-5.07175348 0.02391783 -3.04386724 -0.08226668 0 0 Z " fill="#429BC9" transform="translate(106,179)"/>
<path d="M0 0 C0.66 0.33 1.32 0.66 2 1 C1.34 3.31 0.68 5.62 0 8 C-0.99 7.34 -1.98 6.68 -3 6 C-3 4.68 -3 3.36 -3 2 C-2.01 1.34 -1.02 0.68 0 0 Z " fill="#98CFD7" transform="translate(68,141)"/>
<path d="M0 0 C1.98 0 3.96 0 6 0 C6.33 0.99 6.66 1.98 7 3 C8.49985609 4.66710346 8.49985609 4.66710346 10 6 C6.40992874 4.66654496 3.20429093 3.1056769 0 1 C0 0.67 0 0.34 0 0 Z " fill="#A6BDD9" transform="translate(154,70)"/>
<path d="M0 0 C0.66 0.33 1.32 0.66 2 1 C0.515 3.475 0.515 3.475 -1 6 C-2.32 5.67 -3.64 5.34 -5 5 C-3.35 3.35 -1.7 1.7 0 0 Z " fill="#7A98C0" transform="translate(73,59)"/>
<path d="M0 0 C3.3 1.65 6.6 3.3 10 5 C9.01 5.66 8.02 6.32 7 7 C7 6.34 7 5.68 7 5 C5.35 4.67 3.7 4.34 2 4 C2 3.34 2 2.68 2 2 C1.34 2 0.68 2 0 2 C0 1.34 0 0.68 0 0 Z " fill="#8FB5D5" transform="translate(159,37)"/>
<path d="M0 0 C3.96 1.98 3.96 1.98 8 4 C4 5 4 5 1 5 C0.67 3.35 0.34 1.7 0 0 Z " fill="#7AA5CD" transform="translate(183,51)"/>
<path d="M0 0 C2.475 0.495 2.475 0.495 5 1 C5.33 2.32 5.66 3.64 6 5 C4.125 4.75 4.125 4.75 2 4 C0.75 1.9375 0.75 1.9375 0 0 Z " fill="#6C9BBD" transform="translate(167,43)"/>
<path d="M0 0 C1.98 0 3.96 0 6 0 C6.66 1.65 7.32 3.3 8 5 C4.62496331 3.8141763 2.35277269 2.72426311 0 0 Z " fill="#95BFD9" transform="translate(109,44)"/>
<path d="M0 0 C0.99 0.66 1.98 1.32 3 2 C-2.17578125 5.22265625 -2.17578125 5.22265625 -4 6 C-4.99 5.67 -5.98 5.34 -7 5 C-5.68 4.67 -4.36 4.34 -3 4 C-3 3.34 -3 2.68 -3 2 C-2.01 1.34 -1.02 0.68 0 0 Z " fill="#89CCE3" transform="translate(140,185)"/>
<path d="M0 0 C2.97 0.495 2.97 0.495 6 1 C4.35 2.32 2.7 3.64 1 5 C0.34 4.67 -0.32 4.34 -1 4 C-0.67 2.68 -0.34 1.36 0 0 Z " fill="#73B2D5" transform="translate(149,178)"/>
<path d="M0 0 C-0.33 0.99 -0.66 1.98 -1 3 C-2.98 3 -4.96 3 -7 3 C-7 2.34 -7 1.68 -7 1 C-3.375 -1.125 -3.375 -1.125 0 0 Z " fill="#5F88B0" transform="translate(183,161)"/>
<path d="M0 0 C2.475 0.495 2.475 0.495 5 1 C5 1.66 5 2.32 5 3 C5.66 3 6.32 3 7 3 C6.67 3.66 6.34 4.32 6 5 C4.68 5 3.36 5 2 5 C1.34 3.35 0.68 1.7 0 0 Z " fill="#4675AF" transform="translate(159,158)"/>
<path d="M0 0 C0.33 1.32 0.66 2.64 1 4 C-0.1446875 4.2165625 -0.1446875 4.2165625 -1.3125 4.4375 C-4.08172908 4.9632594 -4.08172908 4.9632594 -7 6 C-7 5.34 -7 4.68 -7 4 C-2.52941176 0 -2.52941176 0 0 0 Z " fill="#3E6CAF" transform="translate(167,59)"/>
<path d="M0 0 C5.53846154 0.61538462 5.53846154 0.61538462 7.875 2.5625 C8.431875 3.2740625 8.431875 3.2740625 9 4 C8.01 4.495 8.01 4.495 7 5 C4.5249829 3.88568235 2.32116581 2.41849022 0 1 C0 0.67 0 0.34 0 0 Z " fill="#9CBFD8" transform="translate(100,39)"/>
<path d="M0 0 C1.32 0.66 2.64 1.32 4 2 C1.64561267 3.42944945 0.51967567 4.08661261 -2.25 3.625 C-2.8275 3.41875 -3.405 3.2125 -4 3 C-2.68 2.01 -1.36 1.02 0 0 Z " fill="#417EBC" transform="translate(126,164)"/>
<path d="M0 0 C0.66 0.33 1.32 0.66 2 1 C0.25 3.0625 0.25 3.0625 -2 5 C-4.25 4.75 -4.25 4.75 -6 4 C-4.02 2.68 -2.04 1.36 0 0 Z " fill="#9CB9D8" transform="translate(121,164)"/>
<path d="M0 0 C2.97 0.495 2.97 0.495 6 1 C5.67 1.66 5.34 2.32 5 3 C1.9375 3.625 1.9375 3.625 -1 4 C-0.67 2.68 -0.34 1.36 0 0 Z " fill="#4084C4" transform="translate(186,153)"/>
<path d="M0 0 C2.475 0.495 2.475 0.495 5 1 C4.67 1.99 4.34 2.98 4 4 C3.01 4.33 2.02 4.66 1 5 C0.67 3.35 0.34 1.7 0 0 Z " fill="#3E6BBD" transform="translate(164,146)"/>
<path d="M0 0 C0.99 0.33 1.98 0.66 3 1 C3.33 1.99 3.66 2.98 4 4 C2.35 5.32 0.7 6.64 -1 8 C-1 7.01 -1 6.02 -1 5 C-0.34 5 0.32 5 1 5 C0.67 3.35 0.34 1.7 0 0 Z " fill="#72C5E0" transform="translate(157,53)"/>
</svg>
