<?xml version="1.0" encoding="UTF-8"?>
<svg version="1.1" xmlns="http://www.w3.org/2000/svg" width="1024" height="1024">
<path d="M0 0 C0.78487793 0.19867676 1.56975586 0.39735352 2.37841797 0.60205078 C13.62445365 3.50656957 23.84346879 7.41267756 34.0402832 12.95922852 C36.26007421 14.13812089 38.51182461 15.23927484 40.76953125 16.34375 C46.3540904 19.12281356 51.69901036 22.25740955 57.0625 25.4375 C65.48662595 30.39441098 73.95775581 35.24961671 82.5 40 C94.76720072 46.83112087 106.89201829 53.89150682 119 61 C133.67487756 69.60554996 148.40906193 78.0896471 163.23144531 86.43847656 C175.73721314 93.49199429 188.18182359 100.64193747 200.51928711 107.98632812 C205.51461752 110.95693323 210.5306652 113.8833394 215.58203125 116.7578125 C217.21918091 117.69488037 217.21918091 117.69488037 218.8894043 118.65087891 C220.99943994 119.85675003 223.11400611 121.05473821 225.23364258 122.24365234 C234.76089716 127.70728213 234.76089716 127.70728213 237 132 C237.7068568 137.62818059 236.21695186 142.03763209 234.375 147.25 C227.82229503 166.96512914 224.13415414 187.37103095 222 208 C221.89703613 208.93811523 221.79407227 209.87623047 221.68798828 210.84277344 C216.52704168 258.7344011 221.35672781 307.85327991 237.17871094 353.43164062 C238.29896221 356.93492343 238.79708024 359.37690798 238 363 C232.25909786 368.69218162 225.51191621 372.37782078 218.5 376.3125 C216.72907585 377.31817295 214.95979144 378.32669067 213.1905365 379.33529663 C211.4744588 380.31319639 209.75701758 381.28870212 208.03955078 382.26416016 C202.68569112 385.32166555 197.41286345 388.50961427 192.140625 391.70507812 C187.4131586 394.56485023 182.67460688 397.4062369 177.9375 400.25 C176.85976318 400.89710938 175.78202637 401.54421875 174.67163086 402.2109375 C167.79692139 406.33442839 160.90624251 410.42957506 154 414.5 C141.9586459 421.59790069 129.97889689 428.79734871 118 436 C92.32437658 451.43760769 92.32437658 451.43760769 81.65039062 457.6809082 C75.37857306 461.35032223 69.15506805 465.09932938 62.9309082 468.84887695 C23.97629264 492.28249002 -11.9888001 506.47600728 -58.40234375 495.4921875 C-69.38858894 492.66293504 -79.83366315 488.85861397 -89.99609375 483.78515625 C-90.98802734 483.39650391 -90.98802734 483.39650391 -92 483 C-92.66 483.33 -93.32 483.66 -94 484 C-94 483.01 -94 482.02 -94 481 C-95.02287109 480.62681641 -95.02287109 480.62681641 -96.06640625 480.24609375 C-115.9077806 471.81813314 -137.31609466 454.26420449 -150 437 C-151.0625 434 -151.0625 434 -151 431 C-148.44304396 426.4395937 -146.00374724 423.97058064 -141.5 421.375 C-140.34374201 420.6953261 -139.1874926 420.01563759 -138.03125 419.3359375 C-137.39445312 418.96823242 -136.75765625 418.60052734 -136.1015625 418.22167969 C-132.90636773 416.36425001 -129.74300933 414.45457308 -126.57617188 412.54931641 C-124.91747356 411.55177097 -123.25742042 410.55647308 -121.59570312 409.56396484 C-116.9517909 406.78910488 -112.33474449 403.97544573 -107.734375 401.12890625 C-101.56097989 397.32246091 -95.32220042 393.63817047 -89.05490112 389.98886108 C-75.92000611 382.33773977 -62.86552149 374.5593633 -49.84570312 366.71386719 C-45.46306515 364.07435804 -41.0752072 361.44357054 -36.6875 358.8125 C-35.05986727 357.83598511 -33.43226279 356.85942313 -31.8046875 355.8828125 C-21.55729167 349.734375 -11.30989583 343.5859375 -1.0625 337.4375 C0.47083984 336.51747192 0.47083984 336.51747192 2.03515625 335.57885742 C4.14447386 334.31329953 6.25384929 333.04783799 8.36328125 331.7824707 C13.70187517 328.57988471 19.03947908 325.37567213 24.375 322.16796875 C34.16629189 316.28366989 43.96719293 310.4185325 53.8125 304.625 C62.08300687 299.75499963 70.30145633 294.80240561 78.5 289.8125 C87.90063286 284.09113373 97.31289522 278.39012491 106.74893188 272.72729492 C108.66637693 271.57519187 110.58176612 270.41973401 112.49682617 269.26367188 C117.82879236 266.05116213 123.1662839 262.87164424 128.6328125 259.890625 C129.44016846 259.44388428 130.24752441 258.99714355 131.0793457 258.53686523 C132.50640395 257.75445601 133.94436877 256.99141793 135.39526367 256.25415039 C138.83932266 254.35578909 139.91326925 253.24807749 141.23046875 249.48046875 C141.39322849 245.90576575 141.39322849 245.90576575 138.84179688 243.99267578 C136.05849188 242.04101467 133.26075033 240.30733589 130.30078125 238.63671875 C129.18678955 238.00459473 128.07279785 237.3724707 126.92504883 236.72119141 C126.04255966 236.22440887 126.04255966 236.22440887 125.14224243 235.71759033 C122.64094205 234.30943294 120.14519745 232.89155358 117.64897156 231.47442627 C116.35638364 230.74080274 115.06350367 230.00769356 113.77033997 229.27508545 C107.26627147 225.58971351 100.78667927 221.86265072 94.3125 218.125 C93.22694824 217.49883789 92.14139648 216.87267578 91.02294922 216.22753906 C84.48643769 212.4520452 77.97878353 208.63124095 71.48657227 204.78027344 C65.13532411 201.03615197 58.69156511 197.46078254 52.25 193.875 C44.9503408 189.8095984 37.74062642 185.69003969 30.66796875 181.2421875 C21.97336637 175.85478194 13.00514682 170.89615793 4.13671875 165.80273438 C-0.12165844 163.35536069 -4.37455743 160.89862252 -8.625 158.4375 C-9.36975586 158.00646973 -10.11451172 157.57543945 -10.88183594 157.13134766 C-16.19400782 154.05391248 -21.49598961 150.95923467 -26.79638672 147.86157227 C-36.19186866 142.37106422 -45.60880121 136.92293457 -55.06591797 131.53930664 C-62.75726062 127.15429894 -70.40132791 122.69021395 -78.04321289 118.21972656 C-84.6527646 114.35743825 -91.28495398 110.5377018 -97.9375 106.75 C-105.50257987 102.44047428 -113.03444648 98.08107073 -120.5234375 93.640625 C-123.88936302 91.64657145 -127.27358015 89.68636784 -130.6640625 87.734375 C-132.63021308 86.59375819 -134.59635896 85.45313326 -136.5625 84.3125 C-137.47894287 83.78986572 -138.39538574 83.26723145 -139.33959961 82.72875977 C-144.98456364 79.43840733 -150.66141919 75.96566376 -155 71 C-156.05983962 66.61932955 -156.01776702 64.76457009 -153.796875 60.9140625 C-151.98490477 58.47757825 -150.04091665 56.24888571 -148 54 C-147.11065568 53.00262325 -146.22133388 52.00522643 -145.33203125 51.0078125 C-142.59641578 47.96501179 -139.80391264 44.97994303 -137 42 C-136.41605469 41.36191406 -135.83210938 40.72382813 -135.23046875 40.06640625 C-118.39310115 22.29126121 -94.42728847 8.75023566 -71 2 C-70.01 2 -69.02 2 -68 2 C-67.67 1.34 -67.34 0.68 -67 0 C-64.3046875 -0.59765625 -64.3046875 -0.59765625 -60.875 -1.0625 C-59.20050781 -1.29646484 -59.20050781 -1.29646484 -57.4921875 -1.53515625 C-55.76355469 -1.76525391 -55.76355469 -1.76525391 -54 -2 C-52.91009766 -2.17039795 -51.82019531 -2.3407959 -50.69726562 -2.51635742 C-34.3621349 -4.65317028 -15.95397707 -4.20477776 0 0 Z " fill="#4298C7" transform="translate(238,265)"/>
<path d="M0 0 C2.65527344 1.25244141 2.65527344 1.25244141 5.359375 2.8515625 C6.37894287 3.44767334 7.39851074 4.04378418 8.44897461 4.65795898 C9.53831299 5.30708252 10.62765137 5.95620605 11.75 6.625 C12.90771559 7.30573734 14.06601148 7.98548864 15.22485352 8.66430664 C17.62947727 10.07377706 20.03155801 11.48744775 22.43212891 12.90380859 C26.84945562 15.50516475 31.29630858 18.05451819 35.74316406 20.60498047 C45.71043278 26.322981 55.62337426 32.12693124 65.5 38 C82.94291971 48.37204447 100.54221687 58.4679141 118.17382812 68.51489258 C124.7668335 72.27846267 131.32368966 76.10190603 137.875 79.9375 C145.85783312 84.61083317 153.87571339 89.21423798 161.9375 93.75 C169.98568574 98.2788004 177.98783016 102.87168753 185.921875 107.59765625 C188.78292401 109.29770996 191.66976579 110.94086488 194.578125 112.55859375 C209.10764206 120.69790703 215.09027227 129.06939556 222 144 C222.50273438 145.04414063 223.00546875 146.08828125 223.5234375 147.1640625 C235.08172642 172.38795268 241.09473186 200.10373741 245.75 227.3125 C246.04825684 229.0437915 246.04825684 229.0437915 246.35253906 230.81005859 C249.32462734 249.03257925 250.38446376 267.17745628 250.3125 285.625 C250.31034485 286.62846466 250.3081897 287.63192932 250.30596924 288.665802 C250.25119763 304.62476067 249.65155592 320.23009565 247 336 C246.69400879 337.82362061 246.69400879 337.82362061 246.38183594 339.68408203 C231.21527151 427.44925942 231.21527151 427.44925942 206.8984375 445.2734375 C205.73148466 445.98642545 204.55637805 446.68617734 203.375 447.375 C202.70533203 447.77944336 202.03566406 448.18388672 201.34570312 448.60058594 C199.79813142 449.53441864 198.24744065 450.46309408 196.69433594 451.38769531 C193.64056143 453.21508992 190.60504111 455.07083851 187.5703125 456.9296875 C175.41442932 464.36857271 163.1956161 471.68333706 150.86694336 478.83325195 C140.56715978 484.81264219 130.36435124 490.95020976 120.16308594 497.09570312 C114.84172685 500.29936173 109.51429654 503.49289368 104.1875 506.6875 C102.09762779 507.94135882 100.00778351 509.19526418 97.91796875 510.44921875 C79.109375 521.734375 60.30078125 533.01953125 41.4921875 544.3046875 C40.63431641 544.81942627 39.77644531 545.33416504 38.89257812 545.86450195 C37.23247947 546.86052895 35.5723245 547.85646208 33.91210938 548.85229492 C29.56974849 551.4570901 25.22890473 554.06435938 20.89111328 556.67675781 C19.06594292 557.77289679 17.23627225 558.86120663 15.40625 559.94921875 C13.13667078 561.31565119 10.88620116 562.71434061 8.65625 564.14453125 C7.09390625 565.12486328 7.09390625 565.12486328 5.5 566.125 C4.15421875 566.99511719 4.15421875 566.99511719 2.78125 567.8828125 C-0.9453797 569.37974522 -3.12739338 568.96388667 -7 568 C-31.1683036 557.08132477 -53.61819199 537.69242696 -73 520 C-74.66549976 518.49870445 -76.33216944 516.99870578 -78 515.5 C-79.24136719 514.38044922 -79.24136719 514.38044922 -80.5078125 513.23828125 C-82.14221867 511.77038982 -83.78266556 510.30919069 -85.4296875 508.85546875 C-94.29743948 500.99348416 -102.96522853 492.75097778 -110.59375 483.6640625 C-111.83200569 482.19879327 -113.16032961 480.81066215 -114.5 479.4375 C-116 477 -116 477 -116.01171875 473.63671875 C-114.90496474 469.65838677 -113.83360582 468.57647552 -110.34521484 466.4921875 C-109.67441895 466.12351562 -109.00362305 465.75484375 -108.3125 465.375 C-107.24443115 464.74851562 -107.24443115 464.74851562 -106.15478516 464.109375 C-104.59705286 463.1981166 -103.03326303 462.29715394 -101.46435547 461.40527344 C-98.12949851 459.50360545 -94.83350262 457.5388807 -91.53344727 455.57763672 C-88.76599805 453.93531357 -85.99273371 452.30313394 -83.21875 450.671875 C-76.2502052 446.56557208 -69.31048705 442.41180208 -62.375 438.25 C-61.74144592 437.86999847 -61.10789185 437.48999695 -60.45513916 437.09848022 C-53.5474636 432.95402802 -46.64933973 428.79463936 -39.7734375 424.59765625 C-26.18920922 416.30815337 -12.52136705 408.2041925 1.28515625 400.2890625 C6.38782597 397.36115145 11.44804344 394.37181331 16.48193359 391.32763672 C21.61320265 388.22490939 26.77259605 385.1713767 31.9375 382.125 C40.60542294 377.01058748 49.26285901 371.87876696 57.91540527 366.73840332 C76.86078672 355.48344667 95.82757747 344.26681311 114.84469604 333.13345337 C122.80679893 328.47120939 130.74859417 323.77886559 138.6484375 319.01171875 C142.37613463 316.77423155 146.12379812 314.5727453 149.875 312.375 C157.29689169 308.02257502 164.68354876 303.61228881 172.0625 299.1875 C173.12130371 298.55312012 174.18010742 297.91874023 175.27099609 297.26513672 C177.27650598 296.06106691 179.27772358 294.84980981 181.27392578 293.63037109 C182.98687931 292.60591259 184.72290756 291.61818563 186.48779297 290.68603516 C188.53272292 289.57057748 190.29278111 288.58462837 192 287 C193.13478487 283.33054374 193.13478487 283.33054374 193 280 C180.57059111 272.80292047 168.1372789 265.61485513 155.625 258.5625 C147.13161338 253.77479365 138.65266933 248.96240532 130.1875 244.125 C129.599758 243.78915894 129.01201599 243.45331787 128.40646362 243.1072998 C118.74169466 237.58287198 109.09904737 232.02061672 99.46240234 226.44726562 C92.2711937 222.29396 85.05043933 218.19622878 77.8125 214.125 C71.02025912 210.3030418 64.28275022 206.41615681 57.62036133 202.37255859 C43.9774215 194.11847733 29.99140412 186.42268985 16.10888672 178.58178711 C5.12389629 172.37731912 -5.82391279 166.11974281 -16.68945312 159.70800781 C-22.20733497 156.45559778 -27.75873672 153.2680271 -33.32421875 150.09765625 C-37.45252356 147.74424167 -41.57232527 145.37629507 -45.6875 143 C-46.45892334 142.55487061 -47.23034668 142.10974121 -48.02514648 141.65112305 C-53.06636949 138.73088714 -58.07914727 135.7653192 -63.078125 132.7734375 C-64.30768057 132.03903237 -65.53725416 131.3046574 -66.7668457 130.5703125 C-69.18553306 129.12550206 -71.5999769 127.67390511 -74.01245117 126.21875 C-75.12080322 125.55617188 -76.22915527 124.89359375 -77.37109375 124.2109375 C-78.36036865 123.61587402 -79.34964355 123.02081055 -80.36889648 122.40771484 C-82.64540491 121.18971841 -84.47909433 120.45780334 -87 120 C-87 119.34 -87 118.68 -87 118 C-87.63164063 117.77828125 -88.26328125 117.5565625 -88.9140625 117.328125 C-93.25898663 115.45815765 -97.2821067 113.11323406 -101.375 110.75 C-102.2 110.28464844 -103.025 109.81929688 -103.875 109.33984375 C-116.61652622 101.99829769 -116.61652622 101.99829769 -119.16796875 96.46875 C-118.92660108 92.92120656 -117.50214661 91.2819594 -115.3125 88.5 C-114.69955078 87.72015747 -114.69955078 87.72015747 -114.07421875 86.92456055 C-106.45682564 77.39854293 -97.84025765 68.7630855 -89.25 60.125 C-88.55326172 59.4235083 -87.85652344 58.7220166 -87.13867188 57.99926758 C-82.58861101 53.46376259 -77.88510618 49.17122933 -73 45 C-72.0615625 44.19175781 -71.123125 43.38351562 -70.15625 42.55078125 C-52.61597323 27.77051862 -33.89306685 14.42491235 -14 3 C-13.17371094 2.51144531 -12.34742188 2.02289063 -11.49609375 1.51953125 C-7.14250211 -0.90096657 -4.78451159 -1.17179353 0 0 Z " fill="#44A4CB" transform="translate(662,230)"/>
<path d="M0 0 C4.06213675 2.3756218 8.12466496 4.75057264 12.1875 7.125 C13.17169922 7.70072754 14.15589844 8.27645508 15.16992188 8.86962891 C21.91350616 12.80634606 28.69433892 16.67174309 35.5 20.5 C44.31646177 25.45935373 53.07161596 30.51532871 61.80200195 35.62451172 C77.02240602 44.5304733 92.30409049 53.33066319 107.625 62.0625 C114.96478825 66.24566113 122.27099089 70.48328496 129.5625 74.75 C138.30409838 79.86416134 147.07730587 84.92060302 155.875 89.9375 C167.29197442 96.44893103 178.69742886 102.97915099 190.06640625 109.57421875 C193.82788219 111.75491638 197.6039622 113.90382496 201.40234375 116.01953125 C202.20905518 116.47537598 203.0157666 116.9312207 203.84692383 117.40087891 C205.31786775 118.23164458 206.79522583 119.05120021 208.2800293 119.85693359 C210.1953125 120.94921875 210.1953125 120.94921875 213 123 C213 124.32 213 125.64 213 127 C210.70844925 128.70247108 208.52904612 130.09490077 206.0625 131.5 C204.58218481 132.38523777 203.10439797 133.2747145 201.62890625 134.16796875 C200.8620752 134.63122559 200.09524414 135.09448242 199.30517578 135.57177734 C187.43659146 142.92522134 176.50511493 151.60450928 165.78662109 160.51757812 C163.1851923 162.67607438 160.56024092 164.80495758 157.9375 166.9375 C150.02868345 173.40924621 150.02868345 173.40924621 142.58837891 180.40283203 C140.60258684 182.39961219 138.60163985 184.38081095 136.6015625 186.36328125 C134.94264302 188.01295516 133.28379068 189.66269658 131.625 191.3125 C130.8 192.12912109 129.975 192.94574219 129.125 193.78710938 C120.44569747 202.36950864 120.44569747 202.36950864 113 212 C112.34 212 111.68 212 111 212 C110.731875 212.58394531 110.46375 213.16789063 110.1875 213.76953125 C108.98776545 216.02298004 107.66982858 217.76302256 106 219.6875 C105.484375 220.28949219 104.96875 220.89148438 104.4375 221.51171875 C102.35337441 223.66946834 101.22237085 223.98150471 98.20556641 224.23242188 C94.59983709 223.9709859 92.79422975 223.12704576 89.7109375 221.28125 C88.70160156 220.68699219 87.69226563 220.09273437 86.65234375 219.48046875 C85.57082031 218.82691406 84.48929687 218.17335938 83.375 217.5 C82.22352837 216.81753681 81.07116506 216.1365761 79.91796875 215.45703125 C77.49829989 214.03050076 75.08184419 212.59872958 72.66699219 211.1640625 C67.39729261 208.04324366 62.07228914 205.01989685 56.74780273 201.99386597 C53.81137127 200.32410127 50.87827992 198.64849603 47.9453125 196.97265625 C47.36634216 196.6418959 46.78737183 196.31113556 46.19085693 195.97035217 C36.85174836 190.63205001 27.54045874 185.24539891 18.2265625 179.86328125 C14.96475993 177.9796495 11.70138156 176.09877679 8.4375 174.21875 C-2.26790027 168.05105913 -12.96029471 161.86283055 -23.625 155.625 C-30.055076 151.8645676 -36.49450142 148.1285243 -43 144.5 C-50.53620524 140.296586 -57.98275689 135.94410082 -65.43115234 131.58740234 C-79.61699717 123.29287374 -93.84342416 115.06621246 -108.125 106.9375 C-115.22518984 102.89021734 -122.27666983 98.76012785 -129.33227539 94.63574219 C-135.9417875 90.77511053 -142.56516984 86.93959504 -149.19995117 83.12255859 C-153.51571188 80.63895158 -157.82754454 78.14860166 -162.13769531 75.65527344 C-163.94075301 74.61256351 -165.74467015 73.57133694 -167.54980469 72.53222656 C-169.68418705 71.30088671 -171.81199233 70.05907647 -173.9375 68.8125 C-175.06027344 68.15894531 -176.18304688 67.50539063 -177.33984375 66.83203125 C-181.00960834 64.3046897 -182.59912148 62.20263556 -184 58 C-186.01243224 37.80969623 -175.7534184 18.12927911 -163.46289062 2.74414062 C-148.22188184 -15.42704875 -129.48098126 -26.92996325 -106 -31 C-104.95972656 -31.18304688 -103.91945313 -31.36609375 -102.84765625 -31.5546875 C-63.03777992 -36.16212496 -33.12096596 -19.38977799 0 0 Z " fill="#3E83C1" transform="translate(424,92)"/>
<path d="M0 0 C2.93367513 1.90496209 4.95606425 4.51651075 7.08496094 7.23535156 C13.45981003 14.97320833 20.42767563 22.04190924 27.52246094 29.11035156 C28.06384705 29.65210022 28.60523315 30.19384888 29.1630249 30.75201416 C35.16620671 36.75474161 41.23842761 42.60897755 47.70996094 48.11035156 C48.91353682 49.16695184 50.11537076 50.22553976 51.31542969 51.28613281 C59.21782659 58.22322657 67.24513383 64.8633137 75.70996094 71.11035156 C76.39461426 71.61566406 77.07926758 72.12097656 77.78466797 72.64160156 C86.42882163 78.99630521 95.12328968 85.230741 104.20361328 90.95214844 C108.60248593 93.78792653 108.60248593 93.78792653 109.70996094 97.11035156 C108.96238525 97.54677979 108.21480957 97.98320801 107.44458008 98.43286133 C90.13075813 108.5463529 72.88438129 118.7613592 55.70996094 129.11035156 C52.31508829 131.15361955 48.9192121 133.19520806 45.52246094 135.23535156 C44.72267822 135.71584961 43.92289551 136.19634766 43.09887695 136.69140625 C36.94552876 140.38254754 30.76740236 144.03070698 24.58496094 147.67285156 C15.77144837 152.86858708 7.02736252 158.16747539 -1.69238281 163.51855469 C-6.92694372 166.72619915 -12.16943649 169.92080251 -17.41503906 173.11035156 C-18.00327454 173.46802612 -18.59151001 173.82570068 -19.1975708 174.19421387 C-28.8574555 180.06350261 -38.56378846 185.85184623 -48.29003906 191.61035156 C-61.83266428 199.62875981 -75.30221632 207.75920111 -88.74023438 215.95166016 C-92.5501783 218.27124916 -96.36924224 220.57563475 -100.18847656 222.87988281 C-102.13436418 224.05543283 -104.08009288 225.23124537 -106.02575684 226.40716553 C-107.27557437 227.16176396 -108.52597283 227.91540114 -109.77697754 228.66802979 C-111.50425625 229.7073958 -113.22923618 230.75057919 -114.95410156 231.79394531 C-115.93846191 232.38747803 -116.92282227 232.98101074 -117.93701172 233.5925293 C-120.35618448 235.03588757 -120.35618448 235.03588757 -122.29003906 237.11035156 C-150.28776975 252.64480673 -182.78978756 262.39140224 -214.76196289 253.88134766 C-220.81485697 252.09574771 -226.61289362 249.85658033 -232.29003906 247.11035156 C-233.67255859 246.4490625 -233.67255859 246.4490625 -235.08300781 245.77441406 C-244.35957389 241.03800092 -252.03534039 234.52913066 -259.29003906 227.11035156 C-259.93585938 226.45035156 -260.58167969 225.79035156 -261.24707031 225.11035156 C-272.03969418 213.4770391 -279.73388739 199.08497046 -283.66503906 183.73535156 C-283.83293945 183.08139404 -284.00083984 182.42743652 -284.17382812 181.75366211 C-285.45699792 176.3140476 -286.2876716 171.28700437 -283.91503906 166.11035156 C-278.28601173 159.67717747 -270.76291952 155.71705623 -263.3762207 151.58129883 C-257.45074282 148.24943816 -251.65241884 144.71784942 -245.85253906 141.17285156 C-244.84578125 140.55764648 -243.83902344 139.94244141 -242.80175781 139.30859375 C-240.83751629 138.10815279 -238.8733219 136.9076347 -236.90917969 135.70703125 C-233.0847342 133.37557399 -229.24190858 131.07590057 -225.39672852 128.77880859 C-220.71410665 125.97588817 -216.05069163 123.14200772 -211.38925171 120.30401611 C-198.84434805 112.66680875 -186.26733916 105.09135054 -173.61132812 97.6394043 C-167.16203308 93.83673493 -160.76903616 89.95376481 -154.3996582 86.01879883 C-149.87551956 83.24222728 -145.30516517 80.5474975 -140.72753906 77.86035156 C-133.7724861 73.76405866 -126.83069849 69.64780932 -119.91503906 65.48535156 C-113.74900701 61.7742784 -107.57032 58.08522058 -101.37988281 54.41503906 C-100.68016357 54.000112 -99.98044434 53.58518494 -99.25952148 53.15768433 C-95.77208576 51.09004354 -92.28381269 49.02383196 -88.79443359 46.95947266 C-81.68736965 42.75043266 -74.62425908 38.48124146 -67.59790039 34.13818359 C-61.38975406 30.33237775 -55.11856286 26.63230832 -48.85253906 22.92285156 C-47.44716275 22.09028693 -46.0418082 21.25768557 -44.63647461 20.42504883 C-42.52529525 19.17429835 -40.41403117 17.92369242 -38.30244446 16.67362976 C-34.02775794 14.14248752 -29.75858316 11.60239272 -25.49316406 9.05566406 C-24.48697021 8.4564917 -23.48077637 7.85731934 -22.4440918 7.23999023 C-20.60345218 6.14389322 -18.76432112 5.04525734 -16.92700195 3.94360352 C-16.11481201 3.46109131 -15.30262207 2.9785791 -14.46582031 2.48144531 C-13.77399658 2.06822021 -13.08217285 1.65499512 -12.36938477 1.22924805 C-7.62280363 -1.32488854 -5.12716471 -2.53735292 0 0 Z " fill="#4198C7" transform="translate(530.2900390625,714.8896484375)"/>
<path d="M0 0 C0.99 0.495 0.99 0.495 2 1 C-4.49293948 5.66939052 -11.10351233 9.95536179 -18 14 C-19.58400552 14.95722188 -21.16733027 15.91557113 -22.75 16.875 C-29.7179147 21.05795037 -36.79523242 25.05210679 -43.86645508 29.05712891 C-50.85569816 32.94923681 -50.85569816 32.94923681 -57 38 C-57.7425 38.28875 -58.485 38.5775 -59.25 38.875 C-61.79991685 39.9181478 -63.83794865 41.18659843 -66.09375 42.74609375 C-68.52870531 44.34777542 -71.03877427 45.79221632 -73.5625 47.25 C-77.94392966 49.7823362 -82.26656069 52.38776636 -86.5625 55.0625 C-91.51766652 58.1453172 -96.54797072 60.9500149 -101.7578125 63.578125 C-104.25751395 65.16330153 -105.5669985 66.41012354 -107 69 C-107.1497344 71.37441738 -107.1497344 71.37441738 -106.6875 73.75 C-106.56761719 74.54921875 -106.44773437 75.3484375 -106.32421875 76.171875 C-106.21722656 76.77515625 -106.11023438 77.3784375 -106 78 C-105.01 78.33 -104.02 78.66 -103 79 C-101.8125 81.5625 -101.8125 81.5625 -101 84 C-105.23315493 82.43216484 -107.42641166 79.61693496 -110 76 C-111.0625 73 -111.0625 73 -111 70 C-108.44304396 65.4395937 -106.00374724 62.97058064 -101.5 60.375 C-100.34374201 59.6953261 -99.1874926 59.01563759 -98.03125 58.3359375 C-97.07605469 57.78437988 -97.07605469 57.78437988 -96.1015625 57.22167969 C-92.90636773 55.36425001 -89.74300933 53.45457308 -86.57617188 51.54931641 C-84.91747356 50.55177097 -83.25742042 49.55647308 -81.59570312 48.56396484 C-76.9517909 45.78910488 -72.33474449 42.97544573 -67.734375 40.12890625 C-61.55979396 36.32172967 -55.31981433 32.63670964 -49.05133057 28.98666382 C-37.65902725 22.35135064 -26.32145506 15.63138326 -15.03222656 8.82202148 C-13.1719489 7.70062305 -11.31010322 6.58181932 -9.44628906 5.46630859 C-7.90140815 4.54030512 -6.36102952 3.60671008 -4.82714844 2.66259766 C-3.25310626 1.71436484 -1.63123425 0.84606683 0 0 Z " fill="#4AB7CA" transform="translate(198,626)"/>
<path d="M0 0 C0 0.33 0 0.66 0 1 C-1.12792969 1.04898438 -2.25585938 1.09796875 -3.41796875 1.1484375 C-8.91063131 1.84181518 -12.7990587 4.58237947 -17.3125 7.625 C-18.56426025 8.4442395 -18.56426025 8.4442395 -19.84130859 9.2800293 C-21.49195944 10.36053399 -23.13922311 11.44623451 -24.78271484 12.53759766 C-27.53058859 14.34994777 -30.32511591 16.08187858 -33.125 17.8125 C-37.28374222 20.45779638 -41.17957167 23.34365733 -45.02734375 26.421875 C-47.91939792 28.73551834 -50.84489571 30.89769717 -53.9375 32.9375 C-62.99183865 39.03531991 -70.87658107 46.76640643 -78.875 54.15625 C-81.17836306 56.27526893 -83.53508599 58.32121659 -85.91015625 60.359375 C-90.00665393 63.93322614 -93.74395561 67.76538429 -97.4375 71.75 C-98.08275635 72.44158203 -98.7280127 73.13316406 -99.39282227 73.84570312 C-104.51011905 79.37348511 -109.35917842 85.06377294 -114 91 C-114.66 90.67 -115.32 90.34 -116 90 C-108.01775175 79.21170544 -98.76079408 69.67904984 -89.3125 60.1875 C-88.2618335 59.12982422 -88.2618335 59.12982422 -87.18994141 58.05078125 C-82.62289503 53.49769481 -77.90411826 49.18660209 -73 45 C-72.0615625 44.19175781 -71.123125 43.38351562 -70.15625 42.55078125 C-52.61597323 27.77051862 -33.89306685 14.42491235 -14 3 C-13.17371094 2.51144531 -12.34742188 2.02289063 -11.49609375 1.51953125 C-7.29861938 -0.81416892 -4.64329923 -1.39298977 0 0 Z " fill="#3C84BB" transform="translate(662,230)"/>
<path d="M0 0 C33.16552091 2.72079238 60.00502924 18.29046649 88 35 C86 36 86 36 84.22265625 35.46875 C79.91735245 33.53798085 75.94923859 31.39910055 72 28.8125 C61.11784121 21.70077932 47.9410059 13.28370692 35 11 C34.01 10.34 33.02 9.68 32 9 C29.47973911 8.26766539 26.98754577 7.60625728 24.4375 7 C23.72166748 6.82557373 23.00583496 6.65114746 22.26831055 6.47143555 C15.9857513 4.95725028 9.67877267 3.5786237 3.29296875 2.57421875 C2.53628906 2.38472656 1.77960938 2.19523437 1 2 C0.67 1.34 0.34 0.68 0 0 Z " fill="#3868B2" transform="translate(218,262)"/>
<path d="M0 0 C0.99 0.99 0.99 0.99 2 2 C0.865625 1.855625 -0.26875 1.71125 -1.4375 1.5625 C-5.2433726 1.08508489 -9.05323854 0.66115843 -12.8671875 0.25390625 C-14.6488028 0.04180919 -16.42060556 -0.2506951 -18.1875 -0.5625 C-27.52170431 -1.6336382 -37.98358219 -2.0054726 -47 1 C-50.55085518 1.83528264 -54.10483468 2.65247143 -57.6640625 3.45117188 C-64.95323396 4.96140122 -64.95323396 4.96140122 -71 9 C-72.35544922 9.43505859 -72.35544922 9.43505859 -73.73828125 9.87890625 C-77.34482167 11.11851954 -80.03950501 12.79494828 -83.1875 14.9375 C-84.21230469 15.62714844 -85.23710937 16.31679687 -86.29296875 17.02734375 C-88.4285803 18.58359748 -90.22808853 20.05759534 -92 22 C-92.66 21.67 -93.32 21.34 -94 21 C-80.47451154 8.54328311 -65.17430281 1.15021249 -47 -2 C-45.95972656 -2.18304688 -44.91945313 -2.36609375 -43.84765625 -2.5546875 C-29.53238664 -4.21148012 -13.89782584 -4.15030964 0 0 Z " fill="#3866B0" transform="translate(365,63)"/>
<path d="M0 0 C0 0.66 0 1.32 0 2 C-0.680625 2.09796875 -1.36125 2.1959375 -2.0625 2.296875 C-22.71463885 5.48257727 -42.32934208 11.63473103 -60 23 C-60.92941406 23.56460937 -61.85882813 24.12921875 -62.81640625 24.7109375 C-69.27735844 28.68276068 -75.18156155 33.14078351 -81 38 C-81.66 37.67 -82.32 37.34 -83 37 C-76.29076856 30.48147023 -69.06268861 25.69484592 -61 21 C-59.89527344 20.32839844 -58.79054687 19.65679687 -57.65234375 18.96484375 C-51.29853059 15.17881731 -44.88960471 11.91653887 -38.0625 9.0625 C-37.36479492 8.76786865 -36.66708984 8.4732373 -35.94824219 8.16967773 C-31.62179016 6.42468924 -27.63898322 5.65763364 -23 5 C-22.67 4.34 -22.34 3.68 -22 3 C-19.3046875 2.40234375 -19.3046875 2.40234375 -15.875 1.9375 C-14.11349609 1.69193359 -14.11349609 1.69193359 -12.31640625 1.44140625 C-11.22199219 1.29574219 -10.12757813 1.15007812 -9 1 C-7.60392967 0.7932608 -6.2080284 0.58536628 -4.8125 0.375 C-2 0 -2 0 0 0 Z " fill="#396CB0" transform="translate(193,262)"/>
<path d="M0 0 C3.43198603 1.23932829 6.30325632 2.50301511 9 5 C9 5.99 9 6.98 9 8 C9.99 8 10.98 8 12 8 C12 8.66 12 9.32 12 10 C12.56589844 10.10441406 13.13179687 10.20882812 13.71484375 10.31640625 C16.39914401 11.11940205 18.2616988 12.34523657 20.5625 13.9375 C21.32691406 14.46214844 22.09132812 14.98679687 22.87890625 15.52734375 C23.57886719 16.01332031 24.27882812 16.49929688 25 17 C25.99 17.66 26.98 18.32 28 19 C28 19.66 28 20.32 28 21 C29.48693359 21.38285156 29.48693359 21.38285156 31.00390625 21.7734375 C35.19569876 22.9710925 39.01983241 24.73344705 42.9375 26.625 C43.62134766 26.94984375 44.30519531 27.2746875 45.00976562 27.609375 C46.67546525 28.40145594 48.3380664 29.2000474 50 30 C49.505 31.485 49.505 31.485 49 33 C48.22914063 32.62746094 47.45828125 32.25492188 46.6640625 31.87109375 C45.66117188 31.39800781 44.65828125 30.92492187 43.625 30.4375 C42.62726563 29.96183594 41.62953125 29.48617187 40.6015625 28.99609375 C39.74304688 28.66738281 38.88453125 28.33867188 38 28 C37.01 28.495 37.01 28.495 36 29 C36 28.01 36 27.02 36 26 C35.31808594 25.75121094 34.63617188 25.50242187 33.93359375 25.24609375 C24.65917885 21.30662857 16.11383344 15.34849378 8.1875 9.1875 C7.59525635 8.73189697 7.0030127 8.27629395 6.39282227 7.80688477 C3.48032274 5.48295909 1.2978709 3.54641156 0 0 Z " fill="#49B8C8" transform="translate(108,720)"/>
<path d="M0 0 C3.48209073 2.82982589 6.81659005 5.60775814 9.625 9.125 C11.89680801 11.87508338 14.17695687 13.84557235 17 16 C18.8125 17.625 18.8125 17.625 20 19 C20 19.66 20 20.32 20 21 C20.639375 21.268125 21.27875 21.53625 21.9375 21.8125 C24 23 24 23 25 26 C26.32068535 26.69138443 27.65620194 27.3546869 29 28 C30.29410718 29.18263997 31.54196483 30.41706632 32.75 31.6875 C36.65400816 35.69272319 40.75526153 39.36282564 45 43 C46.43922308 44.2480157 47.87675314 45.49798674 49.3125 46.75 C49.94800781 47.30171875 50.58351563 47.8534375 51.23828125 48.421875 C52.88505175 49.89703084 54.45376207 51.42045848 56 53 C51.65062473 53 49.77741924 50.30413931 46.8125 47.4375 C45.63352808 46.32215977 44.45384393 45.20757191 43.2734375 44.09375 C42.70592773 43.55492187 42.13841797 43.01609375 41.55371094 42.4609375 C39.7216195 40.73824185 37.84338306 39.07800693 35.9375 37.4375 C4.77814163 10.40217435 4.77814163 10.40217435 0 0 Z " fill="#3B83BA" transform="translate(548,708)"/>
<path d="M0 0 C-13.45098039 9.1503268 -13.45098039 9.1503268 -19 11 C-19.33 11.66 -19.66 12.32 -20 13 C-25.42307692 16 -25.42307692 16 -28 16 C-28 16.66 -28 17.32 -28 18 C-28.969375 18.268125 -29.93875 18.53625 -30.9375 18.8125 C-31.948125 19.204375 -32.95875 19.59625 -34 20 C-34.33 20.99 -34.66 21.98 -35 23 C-37.25 24.0625 -37.25 24.0625 -40 25 C-43.00941993 26.14644569 -45.29717912 27.19811941 -48 29 C-48 28.01 -48 27.02 -48 26 C-46.34545898 24.68823242 -46.34545898 24.68823242 -43.99609375 23.35546875 C-43.12057861 22.84967285 -42.24506348 22.34387695 -41.34301758 21.82275391 C-39.90478638 21.01330322 -39.90478638 21.01330322 -38.4375 20.1875 C-36.42854013 19.03454903 -34.42076702 17.8795282 -32.4140625 16.72265625 C-31.36508789 16.11953613 -30.31611328 15.51641602 -29.23535156 14.89501953 C-25.96432751 12.97910581 -22.74011368 11.00176877 -19.5234375 8.99609375 C-18.48388916 8.34938721 -17.44434082 7.70268066 -16.37329102 7.03637695 C-14.35365042 5.77516883 -12.33839327 4.50691036 -10.32788086 3.23120117 C-9.41143799 2.66248291 -8.49499512 2.09376465 -7.55078125 1.5078125 C-6.33902222 0.74428467 -6.33902222 0.74428467 -5.1027832 -0.03466797 C-3 -1 -3 -1 0 0 Z " fill="#46ACC8" transform="translate(257,593)"/>
<path d="M0 0 C3.95431863 2.759953 6.9050191 6.60784996 9.9140625 10.3359375 C9.5840625 10.9959375 9.2540625 11.6559375 8.9140625 12.3359375 C6.36593339 9.78780839 3.83871137 7.25305126 1.4140625 4.5859375 C-1.34315074 2.10444558 -2.46021693 1.64656053 -6.0859375 1.3359375 C-8.54241127 2.10433101 -8.54241127 2.10433101 -10.8984375 3.4609375 C-11.77628906 3.93144531 -12.65414062 4.40195312 -13.55859375 4.88671875 C-16.33973311 6.4814679 -19.05611861 8.14553389 -21.75 9.8828125 C-25.4274454 12.17045412 -29.20967418 14.27705892 -32.98730469 16.39379883 C-35.88377501 18.02867907 -38.61561762 19.71309527 -41.328125 21.64453125 C-42.23820312 22.20269531 -43.14828125 22.76085937 -44.0859375 23.3359375 C-45.0759375 23.0059375 -46.0659375 22.6759375 -47.0859375 22.3359375 C-42.09208663 19.32562553 -37.09046756 16.32845822 -32.0859375 13.3359375 C-30.70535156 12.50932617 -30.70535156 12.50932617 -29.296875 11.66601562 C-26.35393822 9.90613943 -23.40778951 8.1517485 -20.4609375 6.3984375 C-19.51331543 5.8310083 -18.56569336 5.2635791 -17.58935547 4.67895508 C-16.23801514 3.87687622 -16.23801514 3.87687622 -14.859375 3.05859375 C-14.05935059 2.58172119 -13.25932617 2.10484863 -12.43505859 1.61352539 C-5.02852283 -2.41457704 -5.02852283 -2.41457704 0 0 Z " fill="#3C7DB8" transform="translate(530.0859375,714.6640625)"/>
<path d="M0 0 C2.47990255 0.30737661 4.95880735 0.62064083 7.4375 0.9375 C8.49807617 1.06801758 8.49807617 1.06801758 9.58007812 1.20117188 C14.88671875 1.88671875 14.88671875 1.88671875 16 3 C17.0725 3 18.145 3 19.25 3 C23 3 23 3 25.20703125 3.4921875 C28.9519463 4.17308115 32.64589998 4.14476507 36.4375 4.125 C37.17548828 4.12886719 37.91347656 4.13273438 38.67382812 4.13671875 C42.89208711 4.12921962 46.8452442 3.82963428 51 3 C50.34 3.33 49.68 3.66 49 4 C49 4.66 49 5.32 49 6 C16.69210102 6.61916858 16.69210102 6.61916858 2 3 C2 2.34 2 1.68 2 1 C1.34 0.67 0.68 0.34 0 0 Z " fill="#4CBECD" transform="translate(180,758)"/>
<path d="M0 0 C0.66 0.66 1.32 1.32 2 2 C-12.08731947 11.11532436 -28.22679851 17.29837086 -45 19 C-45 18.01 -45 17.02 -45 16 C-44.32453125 15.93941406 -43.6490625 15.87882813 -42.953125 15.81640625 C-42.06109375 15.73261719 -41.1690625 15.64882813 -40.25 15.5625 C-39.36828125 15.48128906 -38.4865625 15.40007813 -37.578125 15.31640625 C-35.06424278 15.06439347 -35.06424278 15.06439347 -32.921875 14.46484375 C-31 14 -31 14 -27 14 C-27 13.34 -27 12.68 -27 12 C-26.44183594 11.87367188 -25.88367188 11.74734375 -25.30859375 11.6171875 C-19.19488084 9.98272618 -13.30926789 7.43540864 -8 4 C-6.67479497 3.31731862 -5.34187818 2.6492959 -4 2 C-3.2575 1.62875 -2.515 1.2575 -1.75 0.875 C-1.1725 0.58625 -0.595 0.2975 0 0 Z " fill="#4BBCCC" transform="translate(278,744)"/>
<path d="M0 0 C4.74018901 1.83491188 9.36413251 3.91941459 14 6 C14 6.66 14 7.32 14 8 C14.70125 8.268125 15.4025 8.53625 16.125 8.8125 C19.16738796 10.06913851 22.0689933 11.50331573 25 13 C25.78375 13.391875 26.5675 13.78375 27.375 14.1875 C27.91125 14.455625 28.4475 14.72375 29 15 C29 15.66 29 16.32 29 17 C30.30324219 17.38285156 30.30324219 17.38285156 31.6328125 17.7734375 C35.09304519 19.03389349 37.80561413 20.60369711 40.875 22.625 C41.84179688 23.25664062 42.80859375 23.88828125 43.8046875 24.5390625 C44.52914062 25.02117187 45.25359375 25.50328125 46 26 C45.01 26.495 45.01 26.495 44 27 C41.5959961 25.7538068 39.30958554 24.4654109 37 23.0625 C32.7753359 20.16971271 32.7753359 20.16971271 28 19 C28 18.34 28 17.68 28 17 C27.26789307 16.72075684 26.53578613 16.44151367 25.78149414 16.15380859 C21.45019922 14.35711766 17.49044616 11.97095512 13.4375 9.625 C12.58736328 9.14289063 11.73722656 8.66078125 10.86132812 8.1640625 C6.76386115 5.7987796 3.11537269 3.64179301 0 0 Z " fill="#3A7DB6" transform="translate(547,331)"/>
<path d="M0 0 C4.78093144 0.5594707 8.63532439 2.00583359 12.875 4.1875 C13.86886719 4.69023438 13.86886719 4.69023438 14.8828125 5.203125 C25.49942739 10.68328413 35.73264714 16.89925827 46 23 C45.01 23.495 45.01 23.495 44 24 C41.99487305 23.07885742 41.99487305 23.07885742 39.51171875 21.60546875 C38.58689697 21.06623779 37.6620752 20.52700684 36.70922852 19.97143555 C35.71205811 19.38273682 34.7148877 18.79403809 33.6875 18.1875 C22.72507539 11.83580606 11.52554262 6.24870438 0 1 C0 0.67 0 0.34 0 0 Z " fill="#3764AF" transform="translate(374,67)"/>
<path d="M0 0 C2.97 0.99 5.94 1.98 9 3 C9 3.66 9 4.32 9 5 C10.093125 4.79375 11.18625 4.5875 12.3125 4.375 C16 4 16 4 19 6 C19 6.66 19 7.32 19 8 C11.97047248 7.5464821 6.4150557 5.87940913 0 3 C0 2.01 0 1.02 0 0 Z " fill="#49BACA" transform="translate(160,751)"/>
<path d="M0 0 C-1.38508444 3.22486831 -2.90592505 4.99382399 -5.625 7.1875 C-10.22457444 11.06259934 -14.10442114 15.4309833 -18 20 C-18.66 19.67 -19.32 19.34 -20 19 C-2.74712644 0 -2.74712644 0 0 0 Z " fill="#3D79B4" transform="translate(110,300)"/>
<path d="M0 0 C0.66 0.33 1.32 0.66 2 1 C1.25556641 1.45439453 1.25556641 1.45439453 0.49609375 1.91796875 C-2.96312588 4.05126359 -6.35094163 6.21523444 -9.625 8.625 C-12.60833791 10.78228782 -15.58887643 12.57208781 -19 14 C-19.66 13.67 -20.32 13.34 -21 13 C-14.37919847 8.145703 -7.57389732 3.26098357 0 0 Z " fill="#3C84BA" transform="translate(386,795)"/>
<path d="M0 0 C0.33 0.99 0.66 1.98 1 3 C0.175 3.9075 -0.65 4.815 -1.5 5.75 C-3.84492756 8.38232815 -3.99612175 8.77893949 -4.0625 12.5625 C-2.94166905 16.18871778 -1.58094779 18.25253945 1 21 C-4.2295082 18.6557377 -4.2295082 18.6557377 -6 16 C-6.64519163 11.77041042 -6.83007922 9.41714974 -4.65234375 5.69921875 C-3.16959178 3.72572145 -1.64441417 1.84017776 0 0 Z " fill="#3A75AD" transform="translate(89,320)"/>
<path d="M0 0 C7.59 0 15.18 0 23 0 C22.01 0.99 21.02 1.98 20 3 C18.10442015 2.83372107 16.20659676 2.64723116 14.33203125 2.3203125 C10.91160564 1.8505053 7.54435433 2.02692127 4.1015625 2.16015625 C2 2 2 2 0 0 Z " fill="#3865B1" transform="translate(194,262)"/>
<path d="M0 0 C0.33 0.99 0.66 1.98 1 3 C-0.41166886 3.98635837 -1.82956184 4.96381255 -3.25 5.9375 C-4.43335938 6.75541016 -4.43335938 6.75541016 -5.640625 7.58984375 C-7.82636993 8.89622441 -9.5153801 9.54980511 -12 10 C-12.33 9.34 -12.66 8.68 -13 8 C-12.36191406 7.81824219 -11.72382813 7.63648438 -11.06640625 7.44921875 C-10.24011719 7.19785156 -9.41382813 6.94648437 -8.5625 6.6875 C-7.32693359 6.32205078 -7.32693359 6.32205078 -6.06640625 5.94921875 C-5.38449219 5.63597656 -4.70257813 5.32273437 -4 5 C-3.67 4.01 -3.34 3.02 -3 2 C-2.01 1.34 -1.02 0.68 0 0 Z " fill="#4ABBCD" transform="translate(304,728)"/>
<path d="M0 0 C-5.94 3.465 -5.94 3.465 -12 7 C-11 3 -11 3 -9.51171875 1.69921875 C-8.90972656 1.36535156 -8.30773437 1.03148437 -7.6875 0.6875 C-7.09324219 0.34074219 -6.49898438 -0.00601563 -5.88671875 -0.36328125 C-4 -1 -4 -1 0 0 Z " fill="#47B5CB" transform="translate(344,708)"/>
<path d="M0 0 C0.33 0.99 0.66 1.98 1 3 C-0.26538369 3.84158536 -1.53753779 4.67299748 -2.8125 5.5 C-3.87404297 6.19609375 -3.87404297 6.19609375 -4.95703125 6.90625 C-7 8 -7 8 -10 8 C-9.67 7.01 -9.34 6.02 -9 5 C-7.68 5 -6.36 5 -5 5 C-5 4.34 -5 3.68 -5 3 C-2.5 1.375 -2.5 1.375 0 0 Z " fill="#44ACC7" transform="translate(405,668)"/>
<path d="M0 0 C0.66 0.33 1.32 0.66 2 1 C-0.13790949 3.35170044 -2.00593401 4.88791835 -5 6 C-8.25 6.125 -8.25 6.125 -11 6 C-8.66460191 4.44306794 -6.42031244 3.09799354 -3.9375 1.8125 C-2.89916016 1.26529297 -2.89916016 1.26529297 -1.83984375 0.70703125 C-1.23269531 0.47371094 -0.62554687 0.24039063 0 0 Z " fill="#44A8C7" transform="translate(395,955)"/>
<path d="M0 0 C4.0369867 1.79421631 6.64480474 3.20551875 9 7 C5 7 5 7 2.25 4.625 C0 2 0 2 0 0 Z " fill="#4AB7C8" transform="translate(98,711)"/>
<path d="M0 0 C0.33 0.99 0.66 1.98 1 3 C-1.97 4.65 -4.94 6.3 -8 8 C-8 7.01 -8 6.02 -8 5 C-6.25 3.61328125 -6.25 3.61328125 -4 2.3125 C-3.2575 1.87550781 -2.515 1.43851563 -1.75 0.98828125 C-1.1725 0.66214844 -0.595 0.33601562 0 0 Z " fill="#47B0C9" transform="translate(392,676)"/>
<path d="M0 0 C0.66 0.33 1.32 0.66 2 1 C1.21625 1.61875 0.4325 2.2375 -0.375 2.875 C-2.96837647 4.89858661 -2.96837647 4.89858661 -5 7 C-5.99 7 -6.98 7 -8 7 C-6.88424427 3.65273281 -6.48655378 3.37920252 -3.5625 1.75 C-2.386875 1.1725 -1.21125 0.595 0 0 Z " fill="#44A4C3" transform="translate(266,585)"/>
<path d="M0 0 C0.66 0.33 1.32 0.66 2 1 C0.71283353 2.00578589 -0.57988658 3.00446798 -1.875 4 C-2.95394531 4.8353125 -2.95394531 4.8353125 -4.0546875 5.6875 C-6 7 -6 7 -8 7 C-6.88424427 3.65273281 -6.48655378 3.37920252 -3.5625 1.75 C-2.386875 1.1725 -1.21125 0.595 0 0 Z " fill="#3F83BA" transform="translate(555,695)"/>
<path d="M0 0 C0.99 0.33 1.98 0.66 3 1 C0.69 2.65 -1.62 4.3 -4 6 C-4.66 5.67 -5.32 5.34 -6 5 C-2.25 1.125 -2.25 1.125 0 0 Z " fill="#48B1CC" transform="translate(836,528)"/>
<path d="M0 0 C0.66 0.33 1.32 0.66 2 1 C-0.25 3.5625 -0.25 3.5625 -3 6 C-5.3125 5.8125 -5.3125 5.8125 -7 5 C-6.030625 4.360625 -5.06125 3.72125 -4.0625 3.0625 C-1.23963731 1.3034741 -1.23963731 1.3034741 0 0 Z " fill="#48BACE" transform="translate(329,713)"/>
<path d="M0 0 C0.66 0.33 1.32 0.66 2 1 C0.25 3.0625 0.25 3.0625 -2 5 C-4.25 4.75 -4.25 4.75 -6 4 C-4.02 2.68 -2.04 1.36 0 0 Z " fill="#4ABBCE" transform="translate(318,720)"/>
<path d="M0 0 C0.66 0.33 1.32 0.66 2 1 C0.25 3.0625 0.25 3.0625 -2 5 C-4.25 4.75 -4.25 4.75 -6 4 C-4.02 2.68 -2.04 1.36 0 0 Z " fill="#47B4CD" transform="translate(380,683)"/>
<path d="M0 0 C0.33 0.99 0.66 1.98 1 3 C-0.65 4.65 -2.3 6.3 -4 8 C-3.40072174 4.64404172 -2.15377564 2.62198774 0 0 Z " fill="#3E7BB5" transform="translate(89,320)"/>
<path d="M0 0 C3 1 3 1 3 1 Z " fill="#44A1C0" transform="translate(329,972)"/>
<path d="M0 0 C2 1 2 1 2 1 Z " fill="#45A0BC" transform="translate(321,971)"/>
<path d="M0 0 C2 1 2 1 2 1 Z " fill="#448CBA" transform="translate(280,856)"/>
<path d="" fill="#4492C1" transform="translate(0,0)"/>
<path d="" fill="#4395C5" transform="translate(0,0)"/>
<path d="M0 0 C2 1 2 1 2 1 Z " fill="#4EB9C8" transform="translate(193,764)"/>
<path d="M0 0 C2 1 2 1 2 1 Z " fill="#428ABE" transform="translate(440,760)"/>
<path d="M0 0 C2 1 2 1 2 1 Z " fill="#4393C6" transform="translate(596,758)"/>
<path d="M0 0 C2 1 2 1 2 1 Z " fill="#4394C5" transform="translate(593,756)"/>
<path d="" fill="#48AFC0" transform="translate(0,0)"/>
<path d="M0 0 C2 1 2 1 2 1 Z " fill="#48A9C3" transform="translate(811,710)"/>
<path d="M0 0 C2 1 2 1 2 1 Z " fill="#4DB2CB" transform="translate(832,528)"/>
<path d="M0 0 C2 1 2 1 2 1 Z " fill="#4AAAC9" transform="translate(795,477)"/>
<path d="M0 0 C2 1 2 1 2 1 Z " fill="#4088BA" transform="translate(233,427)"/>
<path d="M0 0 C2 1 2 1 2 1 Z " fill="#4189BD" transform="translate(602,366)"/>
<path d="M0 0 C2 1 2 1 2 1 Z " fill="#4081B4" transform="translate(116,359)"/>
<path d="M0 0 C2 1 2 1 2 1 Z " fill="#3E7AB2" transform="translate(102,351)"/>
<path d="M0 0 C2 1 2 1 2 1 Z " fill="#4295C4" transform="translate(520,317)"/>
<path d="" fill="#3A7EB5" transform="translate(0,0)"/>
<path d="" fill="#45A2BB" transform="translate(0,0)"/>
<path d="" fill="#43A0BB" transform="translate(0,0)"/>
<path d="" fill="#46A0C0" transform="translate(0,0)"/>
<path d="" fill="#45A2C0" transform="translate(0,0)"/>
<path d="" fill="#45A4BF" transform="translate(0,0)"/>
<path d="" fill="#459DC0" transform="translate(0,0)"/>
<path d="" fill="#45A5BE" transform="translate(0,0)"/>
<path d="" fill="#4299BA" transform="translate(0,0)"/>
<path d="" fill="#46A3BF" transform="translate(0,0)"/>
<path d="" fill="#429AB9" transform="translate(0,0)"/>
<path d="" fill="#47A5BE" transform="translate(0,0)"/>
<path d="" fill="#43A2C0" transform="translate(0,0)"/>
<path d="" fill="#4195B7" transform="translate(0,0)"/>
<path d="" fill="#4194B8" transform="translate(0,0)"/>
<path d="" fill="#408FB4" transform="translate(0,0)"/>
<path d="" fill="#47A0BB" transform="translate(0,0)"/>
<path d="" fill="#3E8DB4" transform="translate(0,0)"/>
<path d="" fill="#449FBF" transform="translate(0,0)"/>
<path d="" fill="#459FBF" transform="translate(0,0)"/>
<path d="" fill="#408FB4" transform="translate(0,0)"/>
<path d="" fill="#44A2BA" transform="translate(0,0)"/>
<path d="" fill="#469FBD" transform="translate(0,0)"/>
<path d="" fill="#419FBB" transform="translate(0,0)"/>
<path d="" fill="#3F88B2" transform="translate(0,0)"/>
<path d="" fill="#439EBD" transform="translate(0,0)"/>
<path d="" fill="#3E88B4" transform="translate(0,0)"/>
<path d="" fill="#3F87B3" transform="translate(0,0)"/>
<path d="" fill="#449FBD" transform="translate(0,0)"/>
<path d="" fill="#41A0BC" transform="translate(0,0)"/>
<path d="" fill="#3E84AE" transform="translate(0,0)"/>
<path d="" fill="#3F86B1" transform="translate(0,0)"/>
<path d="" fill="#439EBA" transform="translate(0,0)"/>
<path d="" fill="#429DBB" transform="translate(0,0)"/>
<path d="" fill="#4087B1" transform="translate(0,0)"/>
<path d="" fill="#4088B2" transform="translate(0,0)"/>
<path d="" fill="#449DBE" transform="translate(0,0)"/>
<path d="" fill="#428CB7" transform="translate(0,0)"/>
<path d="" fill="#438EBC" transform="translate(0,0)"/>
<path d="" fill="#449EBD" transform="translate(0,0)"/>
<path d="" fill="#3F8EBA" transform="translate(0,0)"/>
<path d="" fill="#479EBD" transform="translate(0,0)"/>
<path d="" fill="#429BB6" transform="translate(0,0)"/>
<path d="" fill="#428FBE" transform="translate(0,0)"/>
<path d="" fill="#439DC0" transform="translate(0,0)"/>
<path d="" fill="#45A0C1" transform="translate(0,0)"/>
<path d="" fill="#4292BE" transform="translate(0,0)"/>
<path d="" fill="#429DBE" transform="translate(0,0)"/>
<path d="" fill="#479EC3" transform="translate(0,0)"/>
<path d="" fill="#4491C1" transform="translate(0,0)"/>
<path d="" fill="#479DCA" transform="translate(0,0)"/>
<path d="" fill="#469DBE" transform="translate(0,0)"/>
<path d="" fill="#469FC8" transform="translate(0,0)"/>
<path d="" fill="#459BC8" transform="translate(0,0)"/>
<path d="" fill="#419CBD" transform="translate(0,0)"/>
<path d="" fill="#4FBAC9" transform="translate(0,0)"/>
<path d="" fill="#4495C8" transform="translate(0,0)"/>
<path d="" fill="#4298C6" transform="translate(0,0)"/>
<path d="" fill="#4EBCCA" transform="translate(0,0)"/>
<path d="" fill="#50BECD" transform="translate(0,0)"/>
<path d="" fill="#4EB8C8" transform="translate(0,0)"/>
<path d="" fill="#52BFCE" transform="translate(0,0)"/>
<path d="" fill="#4FBFCD" transform="translate(0,0)"/>
<path d="" fill="#418CC3" transform="translate(0,0)"/>
<path d="" fill="#4391C4" transform="translate(0,0)"/>
<path d="" fill="#4EBECD" transform="translate(0,0)"/>
<path d="" fill="#49AFBD" transform="translate(0,0)"/>
<path d="" fill="#46A3C1" transform="translate(0,0)"/>
<path d="" fill="#50BFCD" transform="translate(0,0)"/>
<path d="" fill="#4AB0BE" transform="translate(0,0)"/>
<path d="" fill="#438ABF" transform="translate(0,0)"/>
<path d="" fill="#438AC1" transform="translate(0,0)"/>
<path d="" fill="#4FBCCE" transform="translate(0,0)"/>
<path d="" fill="#44A3BF" transform="translate(0,0)"/>
<path d="" fill="#52BECE" transform="translate(0,0)"/>
<path d="" fill="#438CC4" transform="translate(0,0)"/>
<path d="" fill="#428BC2" transform="translate(0,0)"/>
<path d="" fill="#4DB9CB" transform="translate(0,0)"/>
<path d="" fill="#458EC3" transform="translate(0,0)"/>
<path d="" fill="#4CBCCD" transform="translate(0,0)"/>
<path d="" fill="#4489BF" transform="translate(0,0)"/>
<path d="" fill="#51BACC" transform="translate(0,0)"/>
<path d="" fill="#458EC2" transform="translate(0,0)"/>
<path d="" fill="#44A7C0" transform="translate(0,0)"/>
<path d="" fill="#4EB8CF" transform="translate(0,0)"/>
<path d="" fill="#48ACBA" transform="translate(0,0)"/>
<path d="" fill="#4388C3" transform="translate(0,0)"/>
<path d="" fill="#49AAB8" transform="translate(0,0)"/>
<path d="" fill="#4489BD" transform="translate(0,0)"/>
<path d="" fill="#4EB8CD" transform="translate(0,0)"/>
<path d="" fill="#4AAEC2" transform="translate(0,0)"/>
<path d="" fill="#4EB3CB" transform="translate(0,0)"/>
<path d="" fill="#4AB0C0" transform="translate(0,0)"/>
<path d="" fill="#438BBD" transform="translate(0,0)"/>
<path d="" fill="#4BB0C3" transform="translate(0,0)"/>
<path d="" fill="#48A9C0" transform="translate(0,0)"/>
<path d="" fill="#49B0C9" transform="translate(0,0)"/>
<path d="" fill="#4CB3C3" transform="translate(0,0)"/>
<path d="" fill="#49B2C6" transform="translate(0,0)"/>
<path d="" fill="#4DAFC4" transform="translate(0,0)"/>
<path d="" fill="#49AFC3" transform="translate(0,0)"/>
<path d="" fill="#49B0CA" transform="translate(0,0)"/>
<path d="" fill="#428DBF" transform="translate(0,0)"/>
<path d="" fill="#4BB0C3" transform="translate(0,0)"/>
<path d="" fill="#4CB5C6" transform="translate(0,0)"/>
<path d="" fill="#4CB3C7" transform="translate(0,0)"/>
<path d="" fill="#4AAEC8" transform="translate(0,0)"/>
<path d="" fill="#428EBB" transform="translate(0,0)"/>
<path d="" fill="#448FBC" transform="translate(0,0)"/>
<path d="" fill="#4AADC9" transform="translate(0,0)"/>
<path d="" fill="#49ACCA" transform="translate(0,0)"/>
<path d="" fill="#4AB3C4" transform="translate(0,0)"/>
<path d="" fill="#3F8FBF" transform="translate(0,0)"/>
<path d="" fill="#4292C0" transform="translate(0,0)"/>
<path d="" fill="#48AAC7" transform="translate(0,0)"/>
<path d="" fill="#4CB2C6" transform="translate(0,0)"/>
<path d="" fill="#4AAFC5" transform="translate(0,0)"/>
<path d="" fill="#4191BE" transform="translate(0,0)"/>
<path d="" fill="#4BAEC8" transform="translate(0,0)"/>
<path d="" fill="#4AAEC4" transform="translate(0,0)"/>
<path d="" fill="#4196C0" transform="translate(0,0)"/>
<path d="" fill="#429BC0" transform="translate(0,0)"/>
<path d="" fill="#449CC1" transform="translate(0,0)"/>
<path d="" fill="#459CBF" transform="translate(0,0)"/>
<path d="" fill="#459CC2" transform="translate(0,0)"/>
<path d="" fill="#4BB1C4" transform="translate(0,0)"/>
<path d="" fill="#49AFC5" transform="translate(0,0)"/>
<path d="" fill="#4AABC6" transform="translate(0,0)"/>
<path d="" fill="#4BB0C3" transform="translate(0,0)"/>
<path d="" fill="#49A6C7" transform="translate(0,0)"/>
<path d="" fill="#48A4C6" transform="translate(0,0)"/>
<path d="" fill="#49A5C3" transform="translate(0,0)"/>
<path d="" fill="#49ADC9" transform="translate(0,0)"/>
<path d="" fill="#4AAECA" transform="translate(0,0)"/>
<path d="" fill="#48ADCB" transform="translate(0,0)"/>
<path d="" fill="#47A1C6" transform="translate(0,0)"/>
<path d="" fill="#4EB3CE" transform="translate(0,0)"/>
<path d="" fill="#459AC5" transform="translate(0,0)"/>
<path d="" fill="#479CC6" transform="translate(0,0)"/>
<path d="" fill="#4EB9CF" transform="translate(0,0)"/>
<path d="" fill="#50B7CF" transform="translate(0,0)"/>
<path d="" fill="#4499C5" transform="translate(0,0)"/>
<path d="" fill="#4FB6CE" transform="translate(0,0)"/>
<path d="" fill="#4495C4" transform="translate(0,0)"/>
<path d="" fill="#4595C3" transform="translate(0,0)"/>
<path d="" fill="#4397C4" transform="translate(0,0)"/>
<path d="" fill="#4196C2" transform="translate(0,0)"/>
<path d="" fill="#4494C2" transform="translate(0,0)"/>
<path d="" fill="#4AAECA" transform="translate(0,0)"/>
<path d="" fill="#4293C1" transform="translate(0,0)"/>
<path d="" fill="#4AAECA" transform="translate(0,0)"/>
<path d="" fill="#49ADC6" transform="translate(0,0)"/>
<path d="" fill="#4089BA" transform="translate(0,0)"/>
<path d="" fill="#49AFC6" transform="translate(0,0)"/>
<path d="" fill="#418EC2" transform="translate(0,0)"/>
<path d="" fill="#429BC3" transform="translate(0,0)"/>
<path d="" fill="#459FC3" transform="translate(0,0)"/>
<path d="" fill="#429BBF" transform="translate(0,0)"/>
<path d="" fill="#4699C1" transform="translate(0,0)"/>
<path d="" fill="#449AC1" transform="translate(0,0)"/>
<path d="" fill="#429AC1" transform="translate(0,0)"/>
<path d="" fill="#4087B9" transform="translate(0,0)"/>
<path d="" fill="#4497BD" transform="translate(0,0)"/>
<path d="" fill="#4598C4" transform="translate(0,0)"/>
<path d="" fill="#4288B9" transform="translate(0,0)"/>
<path d="" fill="#3F86BA" transform="translate(0,0)"/>
<path d="" fill="#3E86BC" transform="translate(0,0)"/>
<path d="" fill="#45A2BC" transform="translate(0,0)"/>
<path d="" fill="#3F83BB" transform="translate(0,0)"/>
<path d="" fill="#4090BF" transform="translate(0,0)"/>
<path d="" fill="#3C7FB7" transform="translate(0,0)"/>
<path d="" fill="#4184BA" transform="translate(0,0)"/>
<path d="" fill="#418FC1" transform="translate(0,0)"/>
<path d="" fill="#418FBF" transform="translate(0,0)"/>
<path d="" fill="#408CBD" transform="translate(0,0)"/>
<path d="" fill="#418DBD" transform="translate(0,0)"/>
<path d="" fill="#4282BA" transform="translate(0,0)"/>
<path d="" fill="#3F8DBF" transform="translate(0,0)"/>
<path d="" fill="#428DBE" transform="translate(0,0)"/>
<path d="" fill="#418ABD" transform="translate(0,0)"/>
<path d="" fill="#4189BE" transform="translate(0,0)"/>
<path d="" fill="#4083B6" transform="translate(0,0)"/>
<path d="" fill="#3E7BBB" transform="translate(0,0)"/>
<path d="" fill="#4379BB" transform="translate(0,0)"/>
<path d="" fill="#3D7ABA" transform="translate(0,0)"/>
<path d="" fill="#4189BE" transform="translate(0,0)"/>
<path d="" fill="#3F7FB5" transform="translate(0,0)"/>
<path d="" fill="#3979BA" transform="translate(0,0)"/>
<path d="" fill="#3E78BB" transform="translate(0,0)"/>
<path d="" fill="#4187C1" transform="translate(0,0)"/>
<path d="" fill="#439CBD" transform="translate(0,0)"/>
<path d="" fill="#439BBC" transform="translate(0,0)"/>
<path d="" fill="#429DBE" transform="translate(0,0)"/>
<path d="" fill="#4285BD" transform="translate(0,0)"/>
<path d="" fill="#3C78BB" transform="translate(0,0)"/>
<path d="" fill="#419FBE" transform="translate(0,0)"/>
<path d="" fill="#4087BF" transform="translate(0,0)"/>
<path d="" fill="#4388C0" transform="translate(0,0)"/>
<path d="" fill="#396CA2" transform="translate(0,0)"/>
<path d="" fill="#4193C2" transform="translate(0,0)"/>
<path d="" fill="#4193C4" transform="translate(0,0)"/>
<path d="" fill="#4075BB" transform="translate(0,0)"/>
<path d="" fill="#4198BF" transform="translate(0,0)"/>
<path d="" fill="#428EC5" transform="translate(0,0)"/>
<path d="" fill="#4094C7" transform="translate(0,0)"/>
<path d="" fill="#3B73B7" transform="translate(0,0)"/>
<path d="" fill="#3A72AF" transform="translate(0,0)"/>
<path d="" fill="#4098C1" transform="translate(0,0)"/>
<path d="" fill="#4297BE" transform="translate(0,0)"/>
<path d="" fill="#3E72B7" transform="translate(0,0)"/>
<path d="" fill="#3F95BA" transform="translate(0,0)"/>
<path d="" fill="#3F92BA" transform="translate(0,0)"/>
<path d="" fill="#4090C5" transform="translate(0,0)"/>
<path d="" fill="#4290C7" transform="translate(0,0)"/>
<path d="" fill="#4392C5" transform="translate(0,0)"/>
<path d="" fill="#3D72B5" transform="translate(0,0)"/>
<path d="" fill="#3A6FAE" transform="translate(0,0)"/>
<path d="" fill="#4190C5" transform="translate(0,0)"/>
<path d="" fill="#396EAE" transform="translate(0,0)"/>
<path d="" fill="#428EC5" transform="translate(0,0)"/>
<path d="" fill="#3C6FB4" transform="translate(0,0)"/>
<path d="" fill="#4294BF" transform="translate(0,0)"/>
<path d="" fill="#4190C4" transform="translate(0,0)"/>
<path d="" fill="#4493C7" transform="translate(0,0)"/>
<path d="" fill="#4192C5" transform="translate(0,0)"/>
<path d="" fill="#428FC1" transform="translate(0,0)"/>
<path d="" fill="#4391C1" transform="translate(0,0)"/>
<path d="" fill="#3C88B9" transform="translate(0,0)"/>
<path d="" fill="#3F8AB9" transform="translate(0,0)"/>
<path d="" fill="#3E89BA" transform="translate(0,0)"/>
<path d="" fill="#4289C4" transform="translate(0,0)"/>
<path d="" fill="#3D87B6" transform="translate(0,0)"/>
<path d="" fill="#3D85B9" transform="translate(0,0)"/>
<path d="" fill="#3E88C2" transform="translate(0,0)"/>
<path d="" fill="#3F86BF" transform="translate(0,0)"/>
<path d="" fill="#4086BE" transform="translate(0,0)"/>
<path d="" fill="#4086BC" transform="translate(0,0)"/>
<path d="" fill="#4185BF" transform="translate(0,0)"/>
<path d="" fill="#4186C0" transform="translate(0,0)"/>
<path d="" fill="#4184BE" transform="translate(0,0)"/>
<path d="" fill="#377CB4" transform="translate(0,0)"/>
<path d="" fill="#4082BD" transform="translate(0,0)"/>
<path d="" fill="#3F84BB" transform="translate(0,0)"/>
<path d="" fill="#4086BC" transform="translate(0,0)"/>
<path d="" fill="#3C82BC" transform="translate(0,0)"/>
<path d="" fill="#3F85BE" transform="translate(0,0)"/>
<path d="" fill="#3A74B2" transform="translate(0,0)"/>
<path d="" fill="#3F75AF" transform="translate(0,0)"/>
<path d="" fill="#396AB1" transform="translate(0,0)"/>
<path d="" fill="#396AAC" transform="translate(0,0)"/>
<path d="" fill="#3769AF" transform="translate(0,0)"/>
<path d="" fill="#3764AB" transform="translate(0,0)"/>
<path d="" fill="#3C6CB0" transform="translate(0,0)"/>
<path d="" fill="#3A6AAF" transform="translate(0,0)"/>
<path d="" fill="#3966AE" transform="translate(0,0)"/>
</svg>
